<svg width="609" height="386" viewBox="0 0 609 386" fill="none" xmlns="http://www.w3.org/2000/svg">
<path d="M360.1 59.4845L8.14916 252.134C-1.97001 257.976 1.3115 270.996 1.03097 278.108C0.784014 284.363 4.43301 290.365 12.1399 294.816L158.155 379.118C174.626 388.627 203.395 387.433 222.416 376.455L565.761 178.224C584.781 167.241 586.847 150.63 570.377 141.122L424.36 56.8194C416.898 52.5105 406.911 50.3986 396.45 50.3986C383.822 50.3986 370.502 53.4766 360.1 59.4845Z" fill="#3C0F6A"/>
<path d="M360.1 44.4695L16.751 242.702C-2.26649 253.683 -4.33298 270.29 12.1398 279.803L158.155 364.105C174.626 373.614 203.395 372.42 222.416 361.44L565.761 163.209C584.781 152.228 586.847 135.619 570.376 126.108L424.359 41.8063C416.897 37.4974 406.911 35.3855 396.45 35.3855C383.821 35.3855 370.502 38.4635 360.1 44.4695Z" fill="#9D3BDA"/>
<path d="M12.138 278.159L158.155 362.461C174.626 371.97 203.395 370.779 222.414 359.798L565.761 161.565C575.774 155.786 581.08 148.447 581.468 141.404C581.881 148.933 576.554 156.978 565.761 163.209L222.414 361.44C203.395 372.42 174.626 373.614 158.155 364.105L12.138 279.801C4.33624 275.298 0.701056 269.2 1.0468 262.864C1.3649 268.603 5.01389 274.046 12.138 278.159Z" fill="#A23DE0"/>
<path d="M364.375 46.6981L20.6114 245.17C3.93906 254.795 2.12938 269.356 16.5673 277.693L161.808 361.547C176.248 369.884 201.469 368.837 218.139 359.211L561.903 160.741C578.575 151.114 580.387 136.554 565.947 128.219L420.705 44.3629C414.163 40.5855 405.409 38.7344 396.238 38.7344C385.169 38.7344 373.493 41.4331 364.375 46.6981Z" fill="#31064D"/>
<path d="M27.2752 248.03L369.33 50.5444C383.286 42.4858 404.398 41.6145 416.483 48.5905L558.625 130.656C570.71 137.634 569.195 149.824 555.239 157.88L213.186 355.365C199.228 363.421 178.121 364.298 166.032 357.318L23.891 275.253C11.8041 268.275 13.3194 256.087 27.2752 248.03Z" fill="#1F0D3C"/>
<path d="M415.242 51.2064C403.851 44.6295 385.442 44.5979 374.123 51.1313L28.2947 250.795C16.9744 257.332 17.0317 267.961 28.4232 274.536L167.273 354.701C178.664 361.278 197.075 361.311 208.395 354.776L554.222 155.113C565.54 148.577 565.483 137.948 554.091 131.372L415.242 51.2064Z" fill="#3C065F"/>
<path d="M375.528 53.5691L29.7033 253.234C25.1574 255.856 22.6562 259.181 22.6562 262.597C22.6562 266.054 25.2048 269.427 29.8318 272.098L168.681 352.265C173.792 355.216 180.636 356.838 187.949 356.838C195.196 356.838 201.959 355.24 206.985 352.336L552.815 152.675C557.355 150.053 559.858 146.728 559.858 143.31C559.858 139.853 557.312 136.478 552.685 133.807L413.833 53.6462C408.72 50.6926 401.877 49.0647 394.561 49.0647C387.316 49.0647 380.558 50.6669 375.528 53.5691Z" fill="url(#paint0_linear_58_345)"/>
<path d="M333.798 297.416L565.763 162.895C575.551 157.244 580.851 150.103 581.442 143.204C581.46 142.974 581.476 140.193 581.485 137.113C581.487 137.17 581.485 151.44 581.442 151.962C580.851 158.859 575.551 166 565.763 171.653L333.798 297.416Z" fill="#3C065F"/>
<path d="M71.7961 325.74L97.9318 340.828C97.9318 336.055 95.0276 330.508 91.4458 328.439L78.2802 320.839C74.7003 318.772 71.7961 320.965 71.7961 325.74Z" fill="black"/>
<path d="M516.829 192.827L500.915 202.016C498.928 203.164 497.318 206.24 497.318 208.889C497.318 211.539 498.928 212.754 500.915 211.61L516.829 202.421C518.818 201.271 520.429 198.193 520.429 195.548C520.429 193.576 519.536 192.397 518.257 192.397C517.821 192.397 517.337 192.535 516.829 192.827Z" fill="#D07BFF"/>
<path d="M516.829 192.827L500.915 202.016C498.928 203.164 497.318 206.24 497.318 208.889C497.318 211.539 498.928 212.754 500.915 211.61L516.829 202.421C518.818 201.271 520.429 198.193 520.429 195.548C520.429 193.576 519.536 192.397 518.257 192.397C517.821 192.397 517.337 192.535 516.829 192.827Z" fill="#D07BFF"/>
<path d="M517.301 193.64L501.383 202.83C499.688 203.808 498.256 206.584 498.256 208.89C498.256 209.911 498.58 211.1 499.489 211.1C499.767 211.1 500.099 210.996 500.445 210.796L516.365 201.607C518.056 200.629 519.49 197.852 519.49 195.548C519.49 194.527 519.166 193.335 518.259 193.335C517.979 193.335 517.647 193.442 517.301 193.64Z" fill="#9F79B8"/>
<path d="M488.419 209.233L472.5 218.422C470.514 219.567 468.904 222.644 468.904 225.293C468.904 227.942 470.514 229.161 472.5 228.013L488.419 218.825C490.407 217.677 492.015 214.601 492.015 211.951C492.015 209.98 491.12 208.8 489.846 208.8C489.407 208.8 488.927 208.939 488.419 209.233Z" fill="#D07BFF"/>
<path d="M488.419 209.233L472.5 218.422C470.514 219.567 468.904 222.644 468.904 225.293C468.904 227.942 470.514 229.161 472.5 228.013L488.419 218.825C490.407 217.677 492.015 214.601 492.015 211.951C492.015 209.98 491.12 208.8 489.846 208.8C489.407 208.8 488.927 208.939 488.419 209.233Z" fill="#D07BFF"/>
<path d="M488.886 210.045L472.968 219.234C471.273 220.212 469.844 222.986 469.844 225.291C469.844 226.313 470.167 227.506 471.073 227.506C471.352 227.506 471.684 227.401 472.032 227.2L487.949 218.011C489.644 217.031 491.077 214.257 491.077 211.952C491.077 210.93 490.755 209.737 489.844 209.737C489.565 209.737 489.233 209.844 488.886 210.045Z" fill="#9F79B8"/>
<path d="M197.509 267.814C189.814 272.259 188.974 278.981 195.64 282.827L261.709 320.973C268.375 324.823 280.015 324.339 287.712 319.894C295.409 315.451 296.247 308.73 289.581 304.879L223.512 266.738C220.492 264.993 216.451 264.138 212.218 264.14C207.107 264.14 201.717 265.384 197.509 267.814Z" fill="#963DE4"/>
<path d="M261.709 320.098L195.642 281.954C188.976 278.106 189.812 271.385 197.509 266.941C205.204 262.498 216.848 262.014 223.514 265.863L289.579 304.006C296.245 307.855 295.411 314.576 287.714 319.021C280.017 323.464 268.375 323.946 261.709 320.098Z" fill="#8B3AD5"/>
<path d="M249.319 296.611L247.583 290.805L244.803 292.409L226.945 282.098L224.181 283.695L242.039 294.006L239.261 295.61L249.319 296.611Z" fill="#EBDEF3"/>
<path d="M277.929 303.445C273.725 301.017 266.933 301.003 262.754 303.415C258.763 305.719 258.615 309.4 262.272 311.837L258.554 313.985L266.054 313.461C269.995 314.475 274.76 314.06 277.976 312.205C282.155 309.793 282.133 305.873 277.929 303.445Z" fill="#EBDEF3"/>
<path d="M466.242 48.6693L465.864 48.7799C451.089 57.3126 449.485 70.2175 462.281 77.6063L569.642 139.513L596.776 123.955C611.553 115.424 613.158 102.515 600.36 95.1262L516.17 46.6008C510.372 43.2521 502.613 41.6123 494.483 41.6123C484.672 41.6123 474.322 44.0028 466.242 48.6693Z" fill="#320A66"/>
<path d="M596.776 122.226L569.643 137.784L462.281 75.8797C456.86 72.7503 454.052 68.6272 453.705 64.2689C453.357 69.2554 456.146 74.0661 462.281 77.6084L569.643 139.513L596.776 123.955C605.295 119.035 609.408 112.668 608.936 106.737C608.559 112.156 604.471 117.783 596.776 122.226Z" fill="#6334A0"/>
<path d="M509.198 66.9259L512.13 63.1663L505.62 64.8594L500.401 62.0737L501.132 66.1732L495.045 68.1705L501.936 69.0517L503.465 73.0326L506.922 69.5179L514.023 69.9407L509.198 66.9259ZM525.213 76.1699L528.142 72.4122L521.633 74.1053L516.411 71.3177L517.146 75.4191L511.057 77.4145L517.95 78.2976L519.477 82.2765L522.935 78.7619L530.037 79.1847L525.213 76.1699ZM541.223 85.4158L544.155 81.6562L537.645 83.3493L532.426 80.5637L533.157 84.6631L527.07 86.6605L533.961 87.5416L535.49 91.5205L538.947 88.0078L546.048 88.4306L541.223 85.4158ZM557.238 94.6598L560.167 90.9021L553.658 92.5953L548.438 89.8076L549.169 93.9091L543.082 95.9044L549.975 96.7875L551.502 100.766L554.96 97.2518L562.062 97.6746L557.238 94.6598ZM573.248 103.906L576.18 100.146L569.67 101.839L564.451 99.0536L565.182 103.153L559.095 105.15L565.986 106.032L567.515 110.01L570.972 106.498L578.073 106.919L573.248 103.906Z" fill="#EBDEF3"/>
<path d="M313.699 7.05893L299.718 15.1294C284.94 23.6621 283.334 36.567 296.13 43.9558L453.542 134.837L494.28 111.319C509.06 102.786 510.664 89.8813 497.866 82.4905L363.627 4.98847C357.829 1.63978 350.073 0 341.945 0C332.132 0 321.781 2.39249 313.699 7.05893Z" fill="#C738B9"/>
<path d="M494.282 109.588L453.544 133.11L296.132 42.2293C290.713 39.0999 287.903 34.9768 287.556 30.6185C287.21 35.605 290 40.4157 296.132 43.958L453.544 134.839L494.282 111.317C502.801 106.398 506.914 100.032 506.44 94.1015C506.065 99.5207 501.977 105.145 494.282 109.588Z" fill="#EA69DD"/>
<path d="M364.57 42.5847C352.171 49.7443 332.002 49.7068 319.523 42.5017C307.045 35.2985 306.982 23.6542 319.383 16.4945C331.782 9.33477 351.95 9.37231 364.43 16.5755C376.908 23.7806 376.971 35.425 364.57 42.5847Z" fill="#EBDEF3"/>
<path d="M344.404 22.4017C343.77 22.2081 342.814 22.3385 342.099 22.7514C341.402 23.1544 341.577 23.8953 342.016 24.324C341.471 25.0984 341.218 25.9558 341.216 26.7599C341.214 27.3862 340.35 27.9058 339.27 27.892C337.484 27.8643 335.702 27.5561 334.113 26.9911C332.009 26.2443 329.228 26.3925 327.414 27.4376L324.271 29.2552C323.662 29.6068 323.664 30.1778 324.279 30.5334L341.113 40.2515C341.726 40.6052 342.713 40.6071 343.324 40.2574L346.467 38.4399C348.281 37.3928 348.538 35.7866 347.243 34.5716C346.266 33.6549 345.736 32.6276 345.689 31.5963C345.661 30.972 346.562 30.4741 347.645 30.4741C349.041 30.4721 350.523 30.3259 351.868 30.0138C352.609 30.2647 353.889 30.3655 354.589 29.9624C355.3 29.5515 355.529 28.9963 355.195 28.6289C358.026 26.8291 359.354 24.6737 355.306 22.3345C353.488 21.2855 351.734 20.8627 350.071 20.8627C348.028 20.8627 346.125 21.4988 344.404 22.4017Z" fill="#CA3ABB"/>
<path d="M459.448 82.0163L442.882 72.4523L439.014 74.6848L455.583 84.2508L459.448 82.0163ZM451.92 87.9768L432.16 76.5675L428.292 78.802L448.052 90.2093L451.92 87.9768ZM476.215 91.6969L462.642 83.8596L458.774 86.094L472.346 93.9294L476.215 91.6969ZM406.955 51.7101L387.094 40.368L383.228 42.6005L403.087 53.9426L406.955 51.7101ZM404.416 60.5511L378.168 45.5205L374.302 47.753L400.55 62.7836L404.416 60.5511ZM455.115 89.8201L451.247 92.0525L456.435 95.0496L460.301 92.8151L455.115 89.8201ZM431.706 65.9999L410.15 53.5534L406.285 55.7878L427.837 68.2323L431.706 65.9999ZM439.691 70.609L434.898 67.8431L431.032 70.0756L435.821 72.8415L439.691 70.609ZM428.969 74.7243L418.587 68.7322L414.723 70.9646L425.099 76.9567L428.969 74.7243ZM407.609 62.3944L403.743 64.6268L411.527 69.1214L415.397 66.8889L407.609 62.3944ZM459.627 96.8928L473.799 105.074L477.667 102.841L463.494 94.6604L459.627 96.8928ZM382.485 69.7595L404.037 82.204L407.905 79.9715L386.351 67.5251L382.485 69.7595ZM383.157 65.6818L363.094 54.2231L359.228 56.4576L379.286 67.9143L383.157 65.6818ZM407.232 84.0473L412.021 86.8132L415.891 84.5807L411.098 81.8148L407.232 84.0473Z" fill="#EBDEF3"/>
<path d="M264.282 86.1368L250.298 94.2092C235.523 102.74 233.916 115.647 246.715 123.036L404.127 213.919L444.863 190.397C459.64 181.864 461.245 168.959 448.448 161.57L314.21 84.0663C308.412 80.7177 300.651 79.0779 292.524 79.0779C282.713 79.0779 272.362 81.4704 264.282 86.1368Z" fill="#350B6D"/>
<path d="M444.865 188.668L404.127 212.188L246.715 121.307C241.295 118.178 238.486 114.054 238.138 109.698C237.793 114.685 240.582 119.493 246.715 123.036L404.127 213.917L444.865 190.397C453.383 185.479 457.497 179.11 457.023 173.179C456.647 178.598 452.56 184.225 444.865 188.668Z" fill="#6C3BAE"/>
<path d="M269.966 95.5743C257.565 102.736 257.626 114.378 270.104 121.584C282.582 128.787 302.751 128.824 315.152 121.665C327.553 114.507 327.492 102.862 315.012 95.6573C308.745 92.0399 300.541 90.2283 292.356 90.2283C284.238 90.2283 276.14 92.0103 269.966 95.5743Z" fill="#8616CC"/>
<path d="M294.987 101.48C294.351 101.286 293.393 101.42 292.68 101.831C291.982 102.234 292.16 102.973 292.595 103.4C292.051 104.176 291.801 105.032 291.799 105.838C291.797 106.464 290.933 106.984 289.851 106.968C288.065 106.942 286.285 106.634 284.696 106.071C282.592 105.322 279.808 105.472 277.995 106.52L274.854 108.333C274.245 108.683 274.247 109.256 274.861 109.609L291.692 119.33C292.306 119.683 293.296 119.685 293.907 119.333L297.048 117.518C298.861 116.471 299.118 114.867 297.824 113.65C296.846 112.733 296.317 111.706 296.271 110.674C296.244 110.048 297.143 109.55 298.225 109.55C299.622 109.55 301.104 109.404 302.449 109.088C303.188 109.339 304.472 109.443 305.172 109.04C305.883 108.628 306.112 108.074 305.776 107.709C308.609 105.907 309.937 103.754 305.887 101.414C304.069 100.365 302.315 99.9426 300.651 99.9426C298.609 99.9426 296.704 100.579 294.987 101.48Z" fill="#370B6F"/>
<path d="M410.032 161.096L393.466 151.532L389.598 153.765L406.166 163.331L410.032 161.096ZM402.503 167.057L382.745 155.648L378.876 157.882L398.637 169.289L402.503 167.057ZM426.797 170.777L413.227 162.942L409.358 165.174L422.931 173.009L426.797 170.777ZM357.539 130.79L337.678 119.448L333.812 121.681L353.671 133.025L357.539 130.79ZM355.001 139.631L328.753 124.603L324.884 126.833L351.134 141.864L355.001 139.631ZM405.697 168.9L401.829 171.133L407.019 174.13L410.885 171.895L405.697 168.9ZM382.29 145.08L360.734 132.633L356.868 134.868L378.422 147.312L382.29 145.08ZM390.274 149.689L385.483 146.923L381.615 149.156L386.405 151.922L390.274 149.689ZM379.552 153.804L369.172 147.814L365.306 150.045L375.684 156.039L379.552 153.804ZM358.193 141.474L354.327 143.707L362.111 148.201L365.979 145.969L358.193 141.474ZM410.212 175.973L424.383 184.156L428.251 181.922L414.078 173.74L410.212 175.973ZM333.067 148.84L354.621 161.284L358.49 159.052L336.934 146.605L333.067 148.84ZM333.739 144.762L313.678 133.303L309.81 135.538L329.871 146.994L333.739 144.762ZM357.814 163.127L362.605 165.893L366.473 163.661L361.682 160.895L357.814 163.127Z" fill="#EBDEF3"/>
<path d="M177.149 155.48L163.166 163.552C148.39 172.083 146.784 184.988 159.582 192.376L316.994 283.257L357.73 259.74C372.507 251.207 374.112 238.302 361.315 230.911L227.077 153.409C221.279 150.06 213.52 148.421 205.393 148.421C195.58 148.421 185.229 150.813 177.149 155.48Z" fill="#360B6E"/>
<path d="M357.732 258.011L316.994 281.529L159.582 190.648C154.162 187.518 151.353 183.395 151.005 179.039C150.66 184.026 153.449 188.836 159.582 192.377L316.994 283.258L357.732 259.74C366.25 254.82 370.364 248.451 369.89 242.52C369.514 247.939 365.427 253.568 357.732 258.011Z" fill="#652CB0"/>
<path d="M182.833 164.917C170.432 172.077 170.493 183.719 182.973 190.924C195.449 198.129 215.62 198.165 228.02 191.005C240.423 183.847 240.359 172.203 227.879 164.998C221.615 161.381 213.41 159.569 205.225 159.569C197.107 159.569 189.007 161.353 182.833 164.917Z" fill="#6D23D5"/>
<path d="M207.856 170.824C207.22 170.631 206.262 170.763 205.549 171.174C204.851 171.575 205.029 172.318 205.464 172.745C204.92 173.519 204.668 174.372 204.666 175.18C204.664 175.803 203.802 176.324 202.718 176.309C200.934 176.283 199.152 175.977 197.563 175.412C195.459 174.665 192.675 174.813 190.862 175.858L187.721 177.676C187.112 178.025 187.114 178.596 187.728 178.95L204.561 188.67C205.173 189.026 206.165 189.026 206.774 188.674L209.919 186.86C211.732 185.811 211.987 184.207 210.693 182.994C209.715 182.077 209.184 181.046 209.136 180.017C209.111 179.393 210.012 178.893 211.094 178.893C212.491 178.889 213.973 178.745 215.316 178.43C216.057 178.683 217.339 178.786 218.039 178.383C218.75 177.972 218.979 177.417 218.643 177.049C221.476 175.25 222.806 173.096 218.756 170.757C216.938 169.708 215.184 169.283 213.52 169.283C211.478 169.283 209.573 169.921 207.856 170.824Z" fill="#370B6F"/>
<path d="M322.897 230.439L306.332 220.873L302.463 223.107L319.031 232.671L322.897 230.439ZM315.368 236.397L295.61 224.99L291.741 227.223L311.502 238.63L315.368 236.397ZM339.662 240.117L326.092 232.28L322.223 234.515L335.796 242.35L339.662 240.117ZM270.405 200.131L250.544 188.789L246.677 191.021L266.536 202.365L270.405 200.131ZM267.866 208.972L241.618 193.941L237.749 196.175L263.998 211.204L267.866 208.972ZM318.563 238.241L314.694 240.475L319.884 243.47L323.751 241.236L318.563 238.241ZM295.155 214.42L273.599 201.974L269.733 204.206L291.287 216.653L295.155 214.42ZM303.139 219.03L298.348 216.264L294.48 218.498L299.271 221.262L303.139 219.03ZM292.417 223.145L282.037 217.153L278.171 219.387L288.549 225.377L292.417 223.145ZM271.059 210.815L267.192 213.049L274.976 217.542L278.845 215.309L271.059 210.815ZM323.077 245.313L337.248 253.496L341.114 251.262L326.943 243.081L323.077 245.313ZM245.932 218.18L267.487 230.625L271.355 228.392L249.799 215.948L245.932 218.18ZM246.604 214.102L226.544 202.644L222.675 204.878L242.736 216.335L246.604 214.102ZM270.679 232.468L275.47 235.234L279.338 233.001L274.548 230.235L270.679 232.468Z" fill="#EBDEF3"/>
<path d="M141.561 56.7036L84.5676 89.744C69.7898 98.2748 68.1896 111.18 80.9858 118.57L238.398 209.451L322.143 160.964C336.921 152.433 338.527 139.526 325.727 132.137L191.489 54.6331C185.69 51.2864 177.934 49.6466 169.806 49.6466C159.993 49.6466 149.643 52.0371 141.561 56.7036Z" fill="#B82CB4"/>
<path d="M322.143 159.235L238.392 207.721L80.9839 116.842C75.5628 113.71 72.7554 109.589 72.4077 105.231C72.06 110.217 74.8496 115.028 80.9839 118.57L238.392 209.449L322.143 160.963C330.662 156.046 334.776 149.677 334.303 143.746C333.926 149.165 329.84 154.792 322.143 159.235Z" fill="#E652D3"/>
<path d="M53.3151 164.707L52.9358 164.818C38.16 173.349 36.5558 186.253 49.3539 193.644L156.716 255.549L183.851 239.991C198.627 231.46 200.231 218.551 187.435 211.16L103.243 162.635C97.4448 159.288 89.6845 157.648 81.5567 157.648C71.7457 157.648 61.3994 160.041 53.3151 164.707Z" fill="#C738B9"/>
<g opacity="0.25">
<path d="M192.435 98.9863C180.034 106.146 159.867 106.108 147.387 98.9033C134.911 91.7001 134.847 80.0558 147.246 72.8961C159.648 65.7364 179.815 65.7739 192.295 72.9771C204.771 80.1822 204.834 91.8266 192.435 98.9863Z" fill="#EBDEF3"/>
</g>
<path d="M183.849 238.26L156.716 253.818L49.354 191.912C43.9328 188.782 41.1255 184.659 40.7797 180.303C40.432 185.289 43.2216 190.1 49.354 193.64L156.716 255.547L183.849 239.989C192.368 235.071 196.481 228.7 196.009 222.771C195.632 228.188 191.546 233.817 183.849 238.26Z" fill="#F54DE0"/>
<g opacity="0.5">
<path d="M192.435 81.8611C180.034 89.0208 159.867 88.9833 147.387 81.7782C134.911 74.575 134.847 62.9306 147.246 55.7709C159.648 48.6113 179.815 48.6488 192.295 55.852C204.771 63.0571 204.834 74.7015 192.435 81.8611Z" fill="#EBDEF3"/>
</g>
<path d="M192.435 71.4871C180.034 78.6468 159.867 78.6093 147.387 71.4041C134.911 64.201 134.847 52.5566 147.246 45.3969C159.648 38.2372 179.815 38.2748 192.295 45.4779C204.771 52.6831 204.834 64.3274 192.435 71.4871Z" fill="#EBDEF3"/>
<path d="M172.268 51.3021C171.634 51.1085 170.677 51.2408 169.964 51.6518C169.267 52.0568 169.443 52.7957 169.875 53.2244C169.336 53.9988 169.081 54.8543 169.077 55.6623C169.075 56.2866 168.214 56.8062 167.135 56.7904C165.347 56.7647 163.565 56.4565 161.977 55.8934C159.873 55.1467 157.093 55.2929 155.279 56.3399L152.134 58.1555C151.526 58.5072 151.528 59.0782 152.144 59.4338L168.976 69.1519C169.589 69.5055 170.579 69.5075 171.189 69.1559L174.332 67.3422C176.144 66.2951 176.401 64.687 175.105 63.472C174.129 62.5573 173.599 61.5279 173.554 60.4967C173.524 59.8724 174.427 59.3745 175.51 59.3725C176.905 59.3706 178.388 59.2244 179.73 58.9122C180.473 59.1631 181.753 59.2659 182.45 58.8628C183.162 58.4519 183.393 57.8987 183.057 57.5332C185.892 55.7295 187.217 53.5741 183.171 51.2389C181.352 50.1878 179.597 49.7631 177.934 49.7631C175.891 49.7631 173.989 50.4012 172.268 51.3021Z" fill="#C637B9"/>
<g opacity="0.25">
<path d="M264.032 133.059L253.53 127.33L249.646 129.572L260.146 135.3L264.032 133.059ZM268.309 129.663L282.54 137.88L286.424 135.638L272.193 127.421L268.309 129.663ZM272.776 142.592L286.404 150.461L290.288 148.218L276.66 140.349L272.776 142.592ZM285.746 139.731L291.835 143.246L295.721 141.003L289.632 137.489L285.746 139.731ZM217.899 100.945L225.717 105.46L229.599 103.215L221.781 98.7031L217.899 100.945ZM238.878 118.922L234.066 116.146L230.182 118.386L234.992 121.166L238.878 118.922ZM243.231 111.086L232.807 105.069L228.923 107.311L239.347 113.329L243.231 111.086ZM257.884 119.493L246.437 112.938L242.553 115.18L253.998 121.735L257.884 119.493ZM258.676 140.318L247.573 134.241L243.687 136.483L254.79 142.56L258.676 140.318ZM231.673 98.5471L253.32 111.047L257.204 108.803L235.557 96.3047L231.673 98.5471ZM258.957 155.315L262.843 153.073L257.528 150.004L253.644 152.249L258.957 155.315ZM280.189 152.519L261.883 142.169L257.998 144.411L276.305 154.762L280.189 152.519ZM235.526 127.338L218.689 117.618L214.803 119.86L231.642 129.58L235.526 127.338ZM268.987 125.57L261.09 121.344L257.206 123.586L265.101 127.812L268.987 125.57ZM215.481 115.765L205.057 109.747L201.175 111.991L211.597 118.009L215.481 115.765ZM205.326 104.037L226.975 116.535L230.859 114.293L209.21 101.795L205.326 104.037ZM221.151 129.389L199.502 116.891L195.618 119.133L217.265 131.631L221.151 129.389ZM250.323 125.477L242.085 120.773L238.201 123.017L246.439 127.721L250.323 125.477ZM254.322 148.153L243.821 142.424L239.935 144.668L250.438 150.398L254.322 148.153ZM228.49 138.111L236.729 142.815L240.613 140.573L232.377 135.869L228.49 138.111ZM244.365 132.39L238.732 129.189L234.85 131.431L240.481 134.632L244.365 132.39ZM220.471 133.484L225.284 136.26L229.168 134.018L224.357 131.24L220.471 133.484ZM298.197 157.051L302.405 159.479L306.291 157.237L302.081 154.807L298.197 157.051ZM279.811 156.787L293.441 164.656L297.327 162.413L283.696 154.542L279.811 156.787ZM276.16 165.029L284.276 169.715L288.162 167.473L280.045 162.785L276.16 165.029ZM262.165 157.166L272.954 163.176L276.838 160.936L266.049 154.924L262.165 157.166ZM232.351 94.4536L219.999 87.3215L216.113 89.5659L228.465 96.6959L232.351 94.4536ZM314.952 151.887L298.351 142.523L294.467 144.765L311.07 154.131L314.952 151.887ZM299.552 153.347L293.497 150.072L289.613 152.312L295.666 155.589L299.552 153.347ZM273.452 138.498L267.239 134.911L263.354 137.153L269.568 140.741L273.452 138.498ZM218.575 96.852L211.036 92.4977L207.15 94.74L214.691 99.0943L218.575 96.852ZM196.296 115.04L184.145 108.022L180.259 110.267L192.411 117.28L196.296 115.04ZM201.851 107.896L193.109 102.848L189.223 105.09L197.967 110.138L201.851 107.896ZM206.004 99.9438L202.072 97.6719L198.186 99.9142L202.12 102.186L206.004 99.9438Z" fill="#EBDEF3"/>
</g>
<g opacity="0.5">
<path d="M264.032 124.825L253.53 119.096L249.646 121.338L260.146 127.067L264.032 124.825ZM268.309 121.429L282.54 129.646L286.424 127.403L272.193 119.187L268.309 121.429ZM272.776 134.358L286.404 142.228L290.288 139.986L276.66 132.115L272.776 134.358ZM285.746 131.499L291.835 135.013L295.721 132.771L289.632 129.254L285.746 131.499ZM217.899 92.7112L225.717 97.2255L229.599 94.9832L221.781 90.4689L217.899 92.7112ZM238.878 110.689L234.066 107.912L230.182 110.154L234.992 112.932L238.878 110.689ZM243.231 102.852L232.807 96.8344L228.923 99.0767L239.347 105.094L243.231 102.852ZM257.884 111.258L246.437 104.703L242.553 106.946L253.998 113.501L257.884 111.258ZM258.676 132.084L247.573 126.007L243.687 128.249L254.79 134.326L258.676 132.084ZM231.673 90.3128L253.32 102.813L257.204 100.57L235.557 88.0724L231.673 90.3128ZM258.957 147.081L262.843 144.838L257.528 141.772L253.644 144.014L258.957 147.081ZM280.189 144.285L261.883 133.935L257.998 136.177L276.305 146.527L280.189 144.285ZM235.526 119.104L218.689 109.384L214.803 111.626L231.642 121.346L235.526 119.104ZM268.987 117.335L261.09 113.112L257.206 115.354L265.101 119.578L268.987 117.335ZM215.481 107.532L205.057 101.513L201.175 103.757L211.597 109.775L215.481 107.532ZM205.326 95.8031L226.975 108.303L230.859 106.061L209.21 93.5607L205.326 95.8031ZM221.151 121.154L199.502 108.657L195.618 110.899L217.265 123.399L221.151 121.154ZM250.323 117.245L242.085 112.541L238.201 114.783L246.439 119.487L250.323 117.245ZM254.322 139.919L243.821 134.192L239.935 136.434L250.438 142.163L254.322 139.919ZM228.49 129.879L236.729 134.583L240.613 132.338L232.377 127.636L228.49 129.879ZM244.365 124.155L238.732 120.957L234.85 123.197L240.481 126.398L244.365 124.155ZM220.471 125.25L225.284 128.026L229.168 125.785L224.357 123.006L220.471 125.25ZM298.197 148.817L302.405 151.245L306.291 149.003L302.081 146.575L298.197 148.817ZM279.811 148.552L293.441 156.421L297.327 154.181L283.696 146.31L279.811 148.552ZM276.16 156.795L284.276 161.481L288.162 159.239L280.045 154.552L276.16 156.795ZM262.165 148.932L272.954 154.942L276.838 152.701L266.049 146.689L262.165 148.932ZM232.351 86.2193L219.999 79.0892L216.113 81.3316L228.465 88.4616L232.351 86.2193ZM314.952 143.655L298.351 134.288L294.467 136.531L311.07 145.897L314.952 143.655ZM299.552 145.113L293.497 141.837L289.613 144.08L295.666 147.355L299.552 145.113ZM273.452 130.264L267.239 126.676L263.354 128.919L269.568 132.506L273.452 130.264ZM218.575 88.6177L211.036 84.2634L207.15 86.5058L214.691 90.86L218.575 88.6177ZM196.296 106.805L184.145 99.7899L180.259 102.032L192.411 109.048L196.296 106.805ZM201.851 99.6615L193.109 94.6137L189.223 96.8561L197.967 101.906L201.851 99.6615ZM206.004 91.7096L202.072 89.4396L198.186 91.6819L202.12 93.9519L206.004 91.7096Z" fill="#EBDEF3"/>
</g>
<path d="M171.837 143.39L158.206 135.521L154.321 137.764L167.953 145.633L171.837 143.39ZM176.113 139.994L190.345 148.213L194.229 145.968L179.997 137.752L176.113 139.994ZM197.505 141.995L203.72 145.583L207.604 143.339L201.389 139.753L197.505 141.995ZM180.582 152.923L194.209 160.794L198.094 158.551L184.466 150.682L180.582 152.923ZM193.554 150.064L199.642 153.579L203.525 151.336L197.438 147.82L193.554 150.064ZM114.179 104.235L121.996 108.749L125.878 106.507L118.061 101.993L114.179 104.235ZM135.156 122.211L130.343 119.436L126.459 121.678L131.27 124.456L135.156 122.211ZM139.51 114.378L129.085 108.358L125.201 110.601L135.624 116.618L139.51 114.378ZM162.562 127.684L142.715 116.227L138.832 118.47L158.676 129.926L162.562 127.684ZM127.951 101.839L149.598 114.337L153.482 112.094L131.835 99.5944L127.951 101.839ZM180.668 132.273L194.296 140.144L198.184 137.9L184.553 130.031L180.668 132.273ZM181.348 128.18L164.711 118.576L160.825 120.817L177.46 130.422L181.348 128.18ZM176.792 135.901L165.766 129.535L161.884 131.777L172.906 138.143L176.792 135.901ZM101.604 107.327L123.255 119.825L127.139 117.583L105.488 105.085L101.604 107.327ZM155.001 133.67L138.364 124.065L134.48 126.307L151.117 135.912L155.001 133.67ZM128.63 97.7432L116.277 90.6112L112.391 92.8555L124.744 99.9856L128.63 97.7432ZM206.929 147.434L223.563 157.038L227.445 154.797L210.813 145.192L206.929 147.434ZM152.806 116.188L157.617 118.965L161.501 116.723L156.69 113.945L152.806 116.188ZM219.015 160.185L206.156 152.853L202.272 155.098L215.129 162.427L219.015 160.185ZM181.257 148.829L175.042 145.241L171.158 147.484L177.373 151.071L181.257 148.829ZM114.852 100.142L107.315 95.7874L103.429 98.0297L110.968 102.384L114.852 100.142ZM102.283 103.234L98.3498 100.964L94.4657 103.206L98.3992 105.476L102.283 103.234Z" fill="#EBDEF3"/>
<g opacity="0.627572">
<path d="M96.2714 182.962L99.2032 179.203L92.6955 180.896L87.4739 178.11L88.2069 182.21L82.118 184.207L89.011 185.088L90.5381 189.067L93.9975 185.554L101.098 185.977L96.2714 182.962ZM112.286 192.206L115.218 188.449L108.706 190.142L103.486 187.356L104.219 191.455L98.1325 193.453L105.023 194.334L106.551 198.313L110.008 194.798L117.11 195.219L112.286 192.206ZM128.298 201.452L131.228 197.693L124.721 199.386L119.499 196.6L120.232 200.701L114.143 202.697L121.036 203.578L122.563 207.557L126.022 204.042L133.123 204.465L128.298 201.452ZM144.311 210.696L147.243 206.939L140.731 208.63L135.511 205.844L136.244 209.943L130.155 211.941L137.048 212.822L138.576 216.803L142.033 213.288L149.135 213.711L144.311 210.696ZM160.323 219.942L163.253 216.183L156.744 217.876L151.526 215.09L152.257 219.189L146.168 221.187L153.061 222.068L154.59 226.047L158.047 222.534L165.148 222.955L160.323 219.942Z" fill="#EBDEF3"/>
</g>
<path d="M248.52 168.106C241.96 164.32 231.322 164.3 224.806 168.062C218.288 171.824 218.322 177.966 224.881 181.753C231.438 185.539 242.077 185.558 248.595 181.795C255.11 178.033 255.077 171.891 248.52 168.106ZM244.707 174.347C245.661 174.898 245.665 175.789 244.714 176.338C243.764 176.885 242.223 176.881 241.269 176.332C240.313 175.779 240.307 174.888 241.257 174.339C242.205 173.789 243.75 173.793 244.707 174.347ZM237.711 170.306C238.665 170.858 238.669 171.749 237.721 172.298C236.77 172.845 235.227 172.843 234.271 172.292C233.315 171.739 233.311 170.848 234.261 170.3C235.21 169.753 236.753 169.755 237.711 170.306ZM228.562 179.594C225.707 177.944 224.871 175.411 226.481 173.29L228.694 173.857C227.479 175.455 228.109 177.367 230.263 178.61C232.481 179.89 235.868 180.236 238.689 179.465L239.73 180.726C235.992 181.747 231.503 181.291 228.562 179.594Z" fill="#EBDEF3"/>
<path d="M264.03 115.935L253.53 110.206L249.646 112.448L260.146 118.177L264.03 115.935ZM268.307 112.539L282.538 120.756L286.422 118.513L272.191 110.297L268.307 112.539ZM272.774 125.467L286.402 133.338L290.286 131.096L276.658 123.225L272.774 125.467ZM285.744 122.609L291.833 126.123L295.719 123.881L289.63 120.364L285.744 122.609ZM217.899 83.8211L225.717 88.3354L229.597 86.0931L221.779 81.5787L217.899 83.8211ZM238.876 101.799L234.064 99.0216L230.18 101.264L234.99 104.042L238.876 101.799ZM243.229 93.962L232.805 87.9442L228.921 90.1866L239.345 96.2043L243.229 93.962ZM257.882 102.368L246.435 95.8132L242.553 98.0555L253.998 104.611L257.882 102.368ZM258.674 123.193L247.571 117.116L243.685 119.359L254.79 125.436L258.674 123.193ZM231.671 81.4227L253.318 93.9225L257.202 91.6801L235.555 79.1823L231.671 81.4227ZM258.955 138.19L262.841 135.948L257.526 132.882L253.642 135.124L258.955 138.19ZM280.187 135.395L261.883 125.045L257.997 127.287L276.303 137.637L280.187 135.395ZM235.524 110.214L218.687 100.493L214.801 102.736L231.64 112.456L235.524 110.214ZM268.985 108.445L261.09 104.221L257.204 106.464L265.099 110.688L268.985 108.445ZM215.481 98.6423L205.057 92.6225L201.175 94.8668L211.595 100.885L215.481 98.6423ZM205.324 86.9129L226.973 99.4128L230.857 97.1704L209.208 84.6706L205.324 86.9129ZM221.149 112.264L199.5 99.7664L195.616 102.009L217.263 114.509L221.149 112.264ZM250.321 108.354L242.085 103.65L238.201 105.893L246.437 110.597L250.321 108.354ZM254.322 131.029L243.821 125.301L239.933 127.544L250.438 133.273L254.322 131.029ZM228.488 120.989L236.727 125.693L240.611 123.448L232.377 118.746L228.488 120.989ZM244.363 115.265L238.73 112.067L234.848 114.307L240.479 117.508L244.363 115.265ZM220.471 116.36L225.282 119.135L229.166 116.895L224.355 114.115L220.471 116.36ZM298.195 139.927L302.403 142.357L306.289 140.113L302.079 137.685L298.195 139.927ZM279.809 139.662L293.441 147.531L297.325 145.289L283.694 137.42L279.809 139.662ZM276.159 147.905L284.274 152.591L288.162 150.349L280.043 145.662L276.159 147.905ZM262.163 140.042L272.954 146.053L276.836 143.811L266.047 137.799L262.163 140.042ZM232.351 77.3292L219.997 70.1991L216.111 72.4414L228.463 79.5715L232.351 77.3292ZM314.952 134.765L298.349 125.398L294.465 127.641L311.07 137.007L314.952 134.765ZM299.55 136.223L293.495 132.947L289.611 135.189L295.664 138.465L299.55 136.223ZM273.45 121.374L267.239 117.786L263.352 120.028L269.566 123.616L273.45 121.374ZM218.573 79.7276L211.036 75.3733L207.148 77.6156L214.689 81.9699L218.573 79.7276ZM196.296 97.9152L184.143 90.8998L180.257 93.1421L192.409 100.158L196.296 97.9152ZM201.849 90.7713L193.107 85.7236L189.221 87.966L197.965 93.0157L201.849 90.7713ZM206.004 82.8194L202.07 80.5494L198.186 82.7918L202.12 85.0618L206.004 82.8194Z" fill="#EBDEF3"/>
<path d="M465.629 158.149L376.949 106.706C368.289 101.707 368.272 89.2172 376.915 84.1912L388.603 76.9723C392.633 74.6272 397.61 74.6193 401.648 76.9505L500.202 133.454C508.86 138.452 508.879 150.942 500.238 155.968L478.676 158.129C474.642 160.472 469.667 160.48 465.629 158.149Z" fill="black"/>
<path d="M386.633 70.6521L345.896 94.1719L454.21 157.035C467.008 164.423 489.362 163.499 504.138 154.964L518.119 146.894C532.895 138.361 534.501 125.456 521.703 118.067L436.563 68.5836C430.763 65.2349 423.002 63.5951 414.875 63.5951C405.064 63.5951 394.715 65.9856 386.633 70.6521Z" fill="#AE42FA"/>
<path d="M518.119 144.92L504.14 152.99C489.36 161.523 467.008 162.45 454.21 155.061L347.6 93.188L345.896 94.1738L454.21 157.036C467.008 164.425 489.36 163.499 504.14 154.966L518.119 146.896C526.668 141.96 530.777 135.565 530.271 129.617C529.815 134.979 525.727 140.526 518.119 144.92Z" fill="#AD0EE2"/>
<path d="M436.504 107.103C424.105 114.262 403.936 114.225 391.458 107.02C378.98 99.8166 378.917 88.1722 391.318 81.0125C403.717 73.8528 423.886 73.8904 436.364 81.0935C448.842 88.2987 448.905 99.943 436.504 107.103Z" fill="#EBDEF3"/>
<path d="M416.137 99.7019L403.323 92.3051C401.454 91.2244 401.444 89.476 403.303 88.4012C405.162 87.3285 408.195 87.3344 410.064 88.4131L422.878 95.8099C424.747 96.8925 424.757 98.6409 422.898 99.7157C421.973 100.249 420.756 100.516 419.537 100.516C418.308 100.516 417.076 100.245 416.137 99.7019ZM397.469 86.6173C389.646 91.1355 397.552 93.9449 405.425 98.4908C413.298 103.035 418.16 107.598 425.984 103.082C433.809 98.5639 433.77 91.2145 425.895 86.6686C421.941 84.3868 416.765 83.2468 411.601 83.2468C406.478 83.2468 401.367 84.367 397.469 86.6173Z" fill="#8615CC"/>
<path d="M406.066 90.1416C405.238 90.6178 405.242 91.3981 406.075 91.8782C406.907 92.3603 408.255 92.3583 409.08 91.8822C409.906 91.4041 409.904 90.6296 409.072 90.1495C408.656 89.9065 408.108 89.7841 407.563 89.7841C407.022 89.7841 406.478 89.9026 406.066 90.1416Z" fill="#8615CC"/>
<path d="M417.06 96.4853C416.23 96.9634 416.234 97.7418 417.068 98.2218C417.9 98.7019 419.245 98.7059 420.073 98.2258C420.901 97.7497 420.897 96.9732 420.063 96.4912C419.646 96.2502 419.099 96.1296 418.554 96.1296C418.01 96.1296 417.471 96.2482 417.06 96.4853Z" fill="#8615CC"/>
<path d="M463.884 124.964L444.023 113.622L440.155 115.855L460.018 127.197L463.884 124.964ZM479.292 123.103L453.044 108.073L449.176 110.305L475.424 125.336L479.292 123.103ZM488.633 139.254L467.077 126.808L463.211 129.04L484.765 141.486L488.633 139.254ZM503.842 137.278L493.464 131.284L489.595 133.519L499.973 139.511L503.842 137.278ZM482.485 124.947L478.617 127.179L486.401 131.676L490.269 129.441L482.485 124.947Z" fill="#EBDEF3"/>
<path d="M69.1664 238.266L28.4289 261.786L136.741 324.65C149.539 332.037 171.893 331.111 186.671 322.58L200.651 314.508C215.43 305.977 217.035 293.072 204.234 285.681L119.095 236.197C113.296 232.851 105.536 231.209 97.4081 231.209C87.5951 231.209 77.2468 233.599 69.1664 238.266Z" fill="#8814CB"/>
<path d="M200.655 312.532L186.673 320.604C171.893 329.135 149.541 330.062 136.743 322.675L30.1358 260.8L28.4289 261.786L136.743 324.65C149.541 332.037 171.893 331.111 186.673 322.58L200.655 314.508C209.201 309.572 213.311 303.179 212.805 297.231C212.348 302.591 208.263 308.14 200.655 312.532Z" fill="#AF24E7"/>
<path d="M119.039 274.716C106.638 281.876 86.471 281.84 73.9909 274.637C61.5128 267.432 61.4516 255.788 73.8506 248.63C86.2497 241.47 106.419 241.506 118.899 248.711C131.375 255.914 131.438 267.557 119.039 274.716Z" fill="#EBDEF3"/>
<path d="M98.6685 267.318L85.8585 259.919C83.9856 258.84 83.9797 257.088 85.8387 256.017C87.6958 254.944 90.7304 254.95 92.5993 256.027L105.409 263.426C107.278 264.504 107.29 266.257 105.433 267.329C104.508 267.865 103.289 268.132 102.071 268.132C100.84 268.132 99.6089 267.859 98.6685 267.318ZM80.0067 254.233C72.1812 258.751 80.0857 261.559 87.9586 266.105C95.8335 270.65 100.695 275.212 108.517 270.696C116.342 266.18 116.303 258.83 108.426 254.286C104.475 252.004 99.2987 250.861 94.1344 250.861C89.0116 250.861 83.9026 251.985 80.0067 254.233Z" fill="#8814CB"/>
<path d="M88.6006 257.756C87.7728 258.232 87.7788 259.008 88.6085 259.488C89.4422 259.968 90.7876 259.974 91.6154 259.496C92.4412 259.018 92.4373 258.242 91.6056 257.76C91.1867 257.519 90.6395 257.398 90.0922 257.398C89.5509 257.398 89.0115 257.517 88.6006 257.756Z" fill="#8814CB"/>
<path d="M99.5892 264.101C98.7634 264.577 98.7654 265.356 99.5991 265.836C100.429 266.316 101.778 266.318 102.606 265.842C103.432 265.363 103.43 264.589 102.596 264.109C102.177 263.866 101.628 263.745 101.081 263.745C100.539 263.745 100.002 263.864 99.5892 264.101Z" fill="#8814CB"/>
<path d="M154.814 287.477L134.953 276.135L131.085 278.367L150.948 289.711L154.814 287.477ZM152.275 296.316L126.029 281.287L122.161 283.522L148.409 298.55L152.275 296.316ZM179.561 301.765L158.007 289.32L154.14 291.553L175.695 303.999L179.561 301.765ZM155.47 298.161L151.602 300.396L159.386 304.888L163.252 302.654L155.47 298.161Z" fill="#EBDEF3"/>
<defs>
<linearGradient id="paint0_linear_58_345" x1="25.2661" y1="264.335" x2="466.033" y2="108.553" gradientUnits="userSpaceOnUse">
<stop stop-color="#5A22B0"/>
<stop offset="0.5" stop-color="#6D20B2"/>
<stop offset="1" stop-color="#801FB4"/>
</linearGradient>
</defs>
</svg>
