<svg width="608" height="454" viewBox="0 0 608 454" fill="none" xmlns="http://www.w3.org/2000/svg">
<path d="M234.241 38.8604C403.664 38.3836 509.114 114.51 522.467 227.716C536.652 348.044 480.771 319.905 389.402 394.982C256.024 504.562 204.105 317.278 22.5228 258.792C-63.4945 231.088 116.347 39.1928 234.241 38.8604Z" fill="url(#paint0_linear_60_1864)"/>
<path d="M103.415 319.617C150.922 356.244 178.893 389.689 164.925 413.89C150.083 439.618 128.32 439.317 90.9959 433.645C36.5225 425.371 51.4396 365.496 9.74924 315.135C-10 291.278 70.3573 294.13 103.415 319.617Z" fill="url(#paint1_linear_60_1864)"/>
<path d="M336.609 25.5591C334.815 25.8515 332.978 26.0526 331.11 26.1765C307.75 27.7253 279.405 17.1959 259.882 14.7753C244.357 12.8239 226.627 14.4346 209.529 18.3531C192.167 22.3332 175.466 28.6991 162.426 36.1417C161.441 36.7106 161.133 37.9426 161.721 38.8898C162.308 39.8383 163.587 40.1461 164.558 39.5773C177.201 32.1394 193.431 25.7096 210.353 21.6118C227.01 17.578 244.328 15.798 259.529 17.5308C279.185 19.8037 307.779 30.055 331.272 28.3509C333.477 28.1908 335.638 27.9274 337.741 27.5443C340.166 31.3804 343.695 34.714 347.973 36.7831C353.942 39.6768 360.91 41.1093 368.32 41.7787C384.256 43.216 402.25 41.0751 416.511 42.6396C437.887 45.0046 455.661 51.5812 469.804 61.6179C485.181 72.529 496.237 87.5299 502.955 105.56C503.352 106.598 504.543 107.131 505.616 106.751C506.69 106.37 507.248 105.218 506.851 104.181C499.633 85.5238 487.945 70.0772 471.847 58.9113C457.175 48.7449 438.828 42.1146 416.82 39.9074C402.515 38.4605 384.506 40.771 368.54 39.449C361.439 38.8607 354.735 37.5448 348.987 34.8077C345.327 33.0578 342.239 30.2889 340.034 27.074C347.561 25.3508 354.309 21.961 359.734 16.1397C363.248 12.3898 363.468 7.62882 361.204 4.25963C359.175 1.24584 355.118 -0.727104 349.487 0.253892C337.917 2.24907 333.654 9.56175 334.212 17.2883C334.418 20.0596 335.242 22.8921 336.609 25.5591ZM338.843 25.1469C346.223 23.6042 352.854 20.4109 358.176 14.7681C360.954 11.7991 361.234 8.03381 359.44 5.35967C357.793 2.90273 354.441 1.43602 349.855 2.22923C339.681 4.00959 335.83 10.3498 336.344 17.1402C336.565 19.8338 337.432 22.5867 338.843 25.1469Z" fill="url(#paint2_linear_60_1864)"/>
<path d="M15.7255 337.54C19.1795 342.982 21.9758 348.802 24.2785 354.829C27.7705 363.953 30.1617 373.523 32.1733 382.888C33.7423 390.45 34.9822 398.083 37.1204 405.454C38.5628 410.417 40.3972 415.265 43.0669 419.888C46.4197 425.816 50.9744 431.087 56.2628 435.584C61.539 440.078 67.5358 443.798 73.862 446.564C77.3793 448.114 81.0358 449.347 84.7809 450.317C88.5007 451.286 92.3087 451.988 96.1298 452.461C100.343 452.986 104.619 453.157 108.921 453.094C115.298 453 121.7 452.381 127.925 451.611C129.063 451.454 129.848 450.438 129.683 449.343C129.531 448.248 128.469 447.488 127.343 447.645C121.282 448.571 115.044 449.361 108.82 449.626C104.682 449.802 100.571 449.748 96.5094 449.352C92.8149 448.988 89.1205 448.409 85.5146 447.562C81.896 446.717 78.3534 445.61 74.9374 444.2C68.7884 441.644 62.9051 438.185 57.7559 433.923C52.6063 429.66 48.1782 424.601 44.8887 418.919C42.3329 414.423 40.5744 409.72 39.2332 404.896C37.209 397.553 36.1715 389.944 34.7418 382.41C32.9833 372.85 30.8068 363.081 27.5553 353.716C25.3665 347.396 22.6842 341.263 19.3061 335.503C18.7243 334.551 17.4464 334.235 16.4596 334.797C15.4728 335.357 15.1437 336.587 15.7255 337.54Z" fill="url(#paint3_linear_60_1864)"/>
<path d="M596.591 374.323C590.044 372.143 584.181 370.033 578.112 367.178C570.209 363.668 563.325 357.969 555.62 354.072C548.288 350.122 540.217 348.404 532.552 345.385C528.346 343.928 523.831 341.354 519.139 339.771C520.839 339.312 522.612 338.815 524.364 338.377C525.453 338.141 526.562 337.848 527.598 337.593C529.121 338.458 530.685 339.207 532.269 339.897C535.781 341.479 539.385 342.965 543.083 344.023C551.599 346.315 560.282 348.14 569.152 348.779C578.51 349.212 587.468 346.633 596.402 346.434C599.366 346.406 602.391 346.867 605.169 347.032C605.645 347.02 606.268 346.601 606.227 346.054C605.845 345.306 604.871 345.055 604.229 344.537C598.006 340.294 591.139 337.192 583.699 336.518C574.373 335.501 565.085 337.353 556.331 334.901C554.238 334.475 551.689 333.671 549.493 332.872C552.822 331.329 556.172 329.727 559.408 327.948C564.864 324.918 569.927 321.004 575.113 317.404C582.655 312.01 590.621 307.247 597.532 300.809C598.549 299.948 601.03 297.472 598.356 297.681C594.882 298.636 591.46 299.944 587.946 300.684C567.744 303.15 548.029 312.845 532.99 328.63C530.893 330.858 528.879 333.185 527.186 335.771C527.072 335.925 526.958 336.079 526.896 336.254C523.516 337.113 520.219 338.072 516.849 339.068C516.725 339.086 516.652 339.124 516.528 339.141C515.273 339.51 514.019 339.879 512.816 340.268C513.74 338.84 514.727 337.237 515.495 336.411C517.893 333.505 520.155 332.139 522.915 329.707C529.629 323.655 535.577 316.107 538.968 307.285C542.099 299.357 545.487 292.526 550.295 285.525C552.678 278.696 526.639 304.421 525.394 305.591C519.51 310.974 515.593 318.459 512.359 326.015C510.82 329.989 509.549 334.534 507.731 337.801C506.93 339.544 505.705 340.986 504.77 342.609C504.781 342.746 504.76 342.805 504.791 342.883C502.116 343.755 499.451 344.763 496.807 345.713C496.734 345.751 496.682 345.73 496.61 345.768C495.386 346.216 494.163 346.663 492.97 347.189C493.032 347.015 493.043 346.82 493.106 346.645C493.356 345.615 493.917 344.376 494.229 343.835C499.817 334.817 506.844 326.896 512.857 318.178C516.035 313.588 519.202 308.861 521.324 303.589C522.873 299.752 523.709 294.77 525.33 291.559C527.325 287.963 529.693 284.647 532.092 281.409C532.424 280.81 534.759 278.41 535.383 276.996C535.738 274.68 532.616 276.969 531.735 277.286C523.686 281.949 516.505 288.481 510.67 296.207C506.798 300.922 503.039 305.815 500.368 311.468C495.483 321.161 493.342 333.263 488.842 342.377C487.439 345.144 485.652 347.826 484.012 349.769C483.618 350.211 483.721 350.584 484.032 350.706C480.62 352.15 477.291 353.694 473.941 355.296C474.923 349.907 478.184 344.421 481.218 339.242C484.792 333.215 487.941 326.887 491.038 320.539C493.096 316.105 495.02 311.552 496.094 306.731C497.524 299.262 497.876 291.833 499.7 284.917C500.314 282.702 501.054 280.471 501.979 278.379C502.332 277.39 503.039 276.407 502.833 275.33C502.616 274.78 501.9 274.963 501.496 275.268C500.489 276.266 499.813 277.659 498.89 278.756C495.972 282.453 492.068 287.753 489.077 292.151C482.929 301.413 477.288 311.406 474.495 322.521C472.421 330.799 472.2 340.006 470.438 347.742C469.843 350.893 469.279 354.124 467.783 356.986C467.741 357.102 467.606 357.315 467.627 357.257C467.502 357.606 467.129 357.99 467.232 358.362C467.262 358.441 467.314 358.461 467.366 358.482C462.886 360.767 458.498 363.288 454.142 365.887C454.215 365.185 454.134 364.423 454.332 363.704C454.479 362.302 455.145 360.108 455.759 358.226C457.382 353.687 459.771 349.649 461.602 344.86C465.522 336.048 466.022 326.221 467.103 316.755C468.185 306.295 467.639 295.923 467.82 285.506C467.895 283.809 468.084 281.958 468.335 280.265L468.398 280.091C468.794 278.321 469.19 276.552 469.41 274.78C469.556 274.041 468.728 273.715 468.23 274.116C467.504 274.494 467.575 275.452 467.377 276.17C467.074 277.512 466.897 278.835 466.719 280.159C465.499 285.388 463.677 290.977 461.919 296.06C458.632 304.259 454.206 312.008 451.987 320.693C450.039 327.959 450.36 335.653 451.23 342.966C451.816 346.781 452.579 349.604 452.221 353.579C452.123 357.325 451.786 360.578 450.87 363.802C450.443 365.16 449.934 366.42 449.403 367.738C449.341 367.912 449.382 368.128 449.465 368.227C449.547 368.326 449.703 368.387 449.879 368.39C446.798 370.23 443.77 372.091 440.72 374.01C441.395 372.949 441.987 371.788 442.476 370.586C444.587 365.841 445.33 360.624 446.104 355.485C447.108 349.043 447.448 342.472 446.421 336.093C445.672 330.753 444.062 325.671 443.044 320.424C441.953 314.551 441.485 308.26 441.629 301.744C441.65 301.355 441.703 301.043 441.755 300.732C441.963 299.818 442.151 298.963 442.287 298.087C441.003 296.719 440.39 298.269 440.086 300.938C438.74 307.179 436.336 314.397 435.57 321C434.655 330.663 435.461 340.473 437.189 349.85C438.114 355.193 440.439 360.092 440.39 365.184C440.365 368.228 439.533 370.556 438.534 373.68C438.44 374.108 438.024 374.609 438.335 375.062L438.438 375.103C438.397 375.219 438.355 375.336 438.365 375.473C424.527 384.428 411.237 394.662 399.395 406.793C397.932 408.407 396.396 410.06 395.015 411.773C394.713 412.451 395.49 412.757 395.998 412.492C397.742 410.922 399.144 408.819 400.856 407.169C414.224 393.581 429.277 382.382 445.386 372.528C450.323 377.062 453.963 383.076 458.713 387.801C467.945 396.681 480.544 399.452 491.49 405.024C492.599 405.394 494.349 406.615 495.19 405.087C495.274 404.855 495.18 404.619 495.046 404.5C494.352 403.961 493.596 403.597 492.861 403.174C488.512 400.798 485.324 397.817 481.867 393.933C480.657 392.527 479.425 391.178 478.173 389.889C479.954 391.187 481.828 392.39 483.702 393.593C489.48 397.594 496.72 400.313 502.677 402.327C508.808 405.007 514.078 408.61 518.715 413.157C519.802 413.917 520.785 415.3 522.08 415.478C524.153 414.967 522.425 413.357 521.68 412.466C515.43 405.822 510.082 398.14 503.188 392.305C499.182 389.134 495.371 386.903 491.8 383.505C487.918 380.317 484.649 376.241 480.538 373.361C475.247 369.817 468.927 368.987 463.749 366.284C462.257 365.498 461.16 364.601 460.063 363.704C464.066 361.431 468.029 359.274 472.125 357.236C473.046 358.13 473.967 359.023 474.888 359.917C479.897 365.408 485.757 369.84 491.835 373.827C496.566 376.952 501.86 378.837 506.321 382.387C516.095 389.754 523.933 401.869 534.339 409.286C536.968 411.185 539.463 413.296 542.134 415.078C543.232 415.643 544.764 416.977 545.875 415.688C546.332 414.74 545.183 414.155 544.738 413.581C543.237 411.994 541.685 410.387 540.371 408.608C533.627 399.38 527.578 389.364 519.153 381.864C510.241 373.575 500.841 365.823 490.268 360.198C486.364 358.063 482.429 355.518 477.911 355.266C477.434 355.277 476.874 355.19 476.367 355.122C480.224 353.256 484.196 351.567 488.251 349.978C489.495 349.472 490.718 349.024 491.963 348.519C494.177 350.918 495.51 354.297 498.15 356.332C506.907 363.565 516.673 369.137 526.958 373.254C543.116 379.949 558.951 388.376 576.463 390.294C577.903 390.396 579.384 391.046 580.836 390.622C582.9 389.311 579.326 388.567 578.539 388.124C575.607 386.903 573.525 386.283 570.501 384.826C567.187 382.857 564.029 380.618 560.799 378.416C552.35 372.633 543.933 366.596 534.673 362.418C524.989 358.272 515.53 355.809 506.376 350.677C503.632 349.264 500.98 347.755 498.392 346.072C503.161 344.299 507.89 342.643 512.732 341.164C512.876 341.752 513.787 342.178 514.149 342.652C517.42 345.733 521.501 347.539 525.218 349.866C531.037 353.751 536.503 358.293 542.655 361.578C552.266 366.094 561.598 369.902 572.021 372.48C578.558 374.191 585.22 375.885 592.039 375.982C593.157 376.489 598.34 376.206 596.591 374.323ZM456.65 366.144C456.681 366.223 456.732 366.243 456.763 366.321C456.794 366.4 457.673 367.742 457.363 367.288C458.913 370.553 461.086 373.401 463.3 376.131C463.693 376.685 464.107 377.179 464.52 377.674C460.617 374.876 456.267 372.831 451.771 371.525C450.766 371.195 449.969 370.948 449.192 370.642C451.64 369.084 454.119 367.603 456.65 366.144Z" fill="url(#paint4_linear_60_1864)"/>
<path d="M556.62 183.267C549.862 187.793 543.698 191.773 536.845 195.587C528.067 200.647 518.558 203.846 509.665 208.563C501.032 212.941 493.384 218.963 485.143 224.048C480.761 226.929 475.344 229.559 470.486 232.794C471.519 231.149 472.582 229.426 473.67 227.748C474.372 226.721 475.05 225.651 475.697 224.66C477.521 223.771 479.296 222.795 481.047 221.774C484.962 219.536 488.885 217.175 492.581 214.54C500.988 208.404 509.2 201.915 516.725 194.724C524.493 187.028 529.818 178.289 536.802 170.662C539.147 168.149 541.885 165.807 544.215 163.539C544.588 163.132 544.789 162.415 544.37 162.199C543.538 162.179 542.585 162.886 541.707 163.19C533.752 166.498 526.088 170.871 519.68 176.84C511.525 184.242 505.423 192.925 496.713 199.188C494.743 200.759 492.144 202.541 489.829 204.028C491.396 200.513 492.938 196.954 494.264 193.41C496.478 187.42 497.756 181.357 499.354 175.334C501.564 166.502 504.559 157.602 505.53 148.824C505.734 147.572 505.966 144.347 503.98 146.698C501.884 150.066 500.078 153.551 497.797 156.855C483.425 175.027 474.538 196.097 473.676 216.009C473.575 218.798 473.61 221.562 474.084 224.174C474.101 224.341 474.119 224.507 474.192 224.64C472.103 227.885 470.15 231.105 468.165 234.404C468.078 234.517 468.047 234.595 467.96 234.708C467.22 235.935 466.479 237.163 465.794 238.355C465.524 236.922 465.181 235.356 465.211 234.33C465.075 230.977 465.914 228.443 466.401 225.002C467.487 216.568 466.908 208.094 463.392 201.196C460.298 194.926 458.183 188.941 457.08 181.68C454.165 176.544 451.54 210.286 451.372 211.872C450.475 219.299 452.63 226.031 455.379 232.217C456.954 235.335 459.145 238.487 459.999 241.516C460.59 242.989 460.63 244.683 461.029 246.215C461.134 246.268 461.158 246.313 461.239 246.323C459.72 248.978 458.306 251.688 456.867 254.354C456.836 254.432 456.78 254.467 456.749 254.545C456.088 255.782 455.429 257.019 454.848 258.266C454.775 258.133 454.646 258.036 454.573 257.903C454.046 257.22 453.619 256.179 453.486 255.669C451.584 246.827 451.603 237.273 450.25 228.21C449.547 223.428 448.74 218.592 446.714 214.389C445.244 211.326 442.398 208.34 441.426 205.502C440.481 202.174 440.031 198.658 439.66 195.153C439.503 194.598 439.673 191.53 439.173 190.357C437.823 188.996 436.947 192.678 436.468 193.567C433.337 202.491 432.217 211.539 433.012 219.998C433.248 225.423 433.701 230.834 435.557 235.675C438.498 244.232 445.324 251.578 448.162 259.546C448.994 261.996 449.461 264.731 449.524 267.004C449.521 267.539 449.865 267.623 450.2 267.416C448.497 270.956 446.931 274.471 445.389 278.03C442.372 274.735 441.104 269.472 439.872 264.543C438.471 258.769 436.52 253.216 434.514 247.698C433.029 243.932 431.352 240.225 428.809 237.112C424.682 232.487 419.724 228.789 416.301 224.085C415.23 222.553 414.246 220.908 413.509 219.17C413.093 218.419 412.963 217.374 412.039 217.054C411.479 216.985 411.037 217.673 410.93 218.154C410.83 219.46 411.274 220.668 411.311 221.949C411.591 226.102 412.215 231.822 412.931 236.358C414.56 245.784 417.108 255.118 422.718 262.561C426.902 268.1 433.219 272.5 437.269 277.528C439.017 279.472 440.844 281.426 441.67 283.999C441.719 284.087 441.761 284.298 441.736 284.254C441.883 284.52 441.856 285.01 442.201 285.094C442.281 285.104 442.337 285.069 442.392 285.035C440.431 289.861 438.709 294.716 437.068 299.581C436.632 299.198 436.029 298.918 435.68 298.422C434.808 297.656 433.793 296.089 432.955 294.71C431.049 291.263 430.106 287.399 428.189 283.663C425.101 276.323 418.571 271.403 412.758 266.158C406.244 260.458 398.495 256.17 391.292 251.25C390.156 250.41 389.002 249.403 388.008 248.416L387.934 248.284C387.003 247.14 386.071 245.996 384.997 244.999C384.593 244.538 383.701 245.087 383.587 245.691C383.275 246.476 384.007 246.855 384.356 247.35C385.06 248.219 385.852 248.976 386.644 249.732C389.358 253.154 391.847 257.249 394.029 261.059C397.189 267.584 399.125 274.865 403.48 280.713C407.049 285.682 412.731 288.933 418.583 291.546C421.74 292.799 424.339 293.447 426.857 295.568C429.42 297.365 431.446 299.138 432.988 301.387C433.606 302.369 434.087 303.375 434.594 304.426C434.667 304.559 434.852 304.622 434.988 304.598C435.124 304.573 435.291 304.47 435.433 304.323C434.274 307.764 433.171 311.171 432.092 314.622C431.882 313.567 431.536 312.536 431.078 311.573C429.415 307.621 426.329 304.606 423.322 301.601C419.58 297.806 415.218 294.511 409.9 292.458C405.537 290.645 400.67 289.677 396.157 288.135C391.146 286.367 386.336 283.882 381.856 280.778C381.598 280.582 381.421 280.395 381.243 280.209C380.765 279.615 380.311 279.064 379.802 278.549C377.813 279.005 378.418 280.233 380.057 281.711C383.385 285.703 386.558 291.035 390.603 294.703C396.688 299.898 404.248 303.709 412.238 306.543C416.744 308.208 422.053 308.489 425.605 310.86C427.732 312.275 428.709 314.042 430.116 316.316C430.343 316.591 430.364 317.17 430.932 317.116L431.044 317.047C431.092 317.136 431.141 317.224 431.246 317.278C426.526 333.051 423.143 348.948 422.254 364.491C422.225 366.464 422.165 368.516 422.272 370.465C422.51 371.03 423.345 370.515 423.564 369.965C423.847 367.775 423.481 365.63 423.684 363.43C424.762 345.933 428.871 328.108 434.769 310.008C441.903 307.918 449.046 307.6 456.167 305.755C469.792 302.031 481.793 292.671 494.453 285.986C495.598 285.221 497.853 284.303 497.448 282.894C497.35 282.717 497.109 282.688 496.918 282.747C495.985 283.085 495.125 283.557 494.241 283.984C489.096 286.565 484.452 287.89 478.957 289.028C477 289.406 475.067 289.827 473.159 290.293C475.495 289.386 477.837 288.355 480.18 287.324C487.61 284.282 495.301 279.418 501.472 275.315C508.252 271.369 514.995 268.571 521.9 266.741C523.303 266.172 525.062 265.976 526.22 264.965C527.513 262.982 524.999 263.703 523.777 263.924C514.107 266.156 504.425 267.151 494.812 270.296C489.381 272.224 484.768 274.418 479.525 275.875C474.181 277.691 468.699 278.584 463.39 280.733C456.671 283.574 451.045 288.527 445.01 291.658C443.266 292.556 441.758 293.072 440.251 293.587C441.84 289.169 443.479 284.839 445.309 280.45C446.674 280.082 448.039 279.714 449.404 279.346C457.27 277.634 465.068 274.719 472.727 271.416C478.704 268.855 484.255 265.252 490.317 263.113C503.306 258.24 518.101 257.172 531.63 251.789C535.066 250.439 538.544 249.301 541.931 247.863C543.205 247.196 545.367 246.513 545.345 244.987C545.041 244.167 543.711 244.869 542.952 244.982C540.636 245.521 538.265 246.095 535.963 246.389C524.077 247.855 512.189 248.374 500.181 252.049C487.228 255.773 474.266 260.154 461.867 266.5C457.248 268.817 452.315 270.971 448.533 274.668C448.161 275.075 447.653 275.507 447.201 275.904C448.962 271.796 450.938 267.672 453.051 263.524C453.687 262.243 454.347 261.005 454.983 259.724C458.44 258.954 461.885 259.377 465.426 258.081C477.511 254.004 489.228 248.316 500.334 241.523C517.942 230.956 536.512 221.454 551.831 207.558C553.052 206.39 554.691 205.438 555.55 204.02C556.271 201.678 552.896 204.353 551.956 204.814C548.757 206.728 546.659 208.201 543.22 210.085C539.189 211.98 535.091 213.619 530.963 215.337C520.146 219.817 509.176 224.155 498.846 230.054C488.199 236.327 478.918 243.178 467.999 248.552C464.814 250.221 461.636 251.767 458.384 253.181C460.938 248.345 463.541 243.598 466.359 238.837C466.889 238.984 467.916 238.41 468.539 238.322C473.32 236.972 477.848 234.356 482.454 232.285C489.834 229.155 497.396 226.622 504.619 222.937C515.468 216.895 525.596 210.765 535.726 203.152C542.146 198.421 548.654 193.576 554.16 187.867C555.41 187.156 559.343 182.654 556.62 183.267ZM439.249 297.583C439.33 297.593 439.385 297.558 439.465 297.568C439.545 297.578 441.193 297.451 440.625 297.505C444.164 297.692 447.904 297.162 451.596 296.544C452.299 296.466 452.978 296.343 453.657 296.221C448.571 298.232 443.66 300.966 439.153 304.162C438.119 304.859 437.309 305.418 436.473 305.934C437.327 303.155 438.26 300.386 439.249 297.583Z" fill="url(#paint5_linear_60_1864)"/>
<path d="M353.323 145.634C367.708 145.193 378.588 157.658 377.074 175.077C375.998 187.42 362.912 208.555 345.638 207.311C331.3 206.278 328.222 198.102 327.227 178.644C326.001 154.699 338.948 146.075 353.323 145.634Z" fill="url(#paint6_linear_60_1864)"/>
<path d="M358.99 128.268C358.289 127.962 357.56 127.223 356.983 126.912C355.281 126.007 353.381 125.419 351.499 124.987C342.118 122.824 333.335 125.724 325.927 131.481C317.518 138.008 311.086 149.423 315.363 159.822C316.86 163.487 320.275 166.066 323.54 168.288C329.236 172.156 348.686 169.131 337.941 167.603C329.55 165.239 356.775 170.684 364.533 165.494C364.794 174.014 364.19 186.829 374.791 189.958C374.562 192.419 375.896 194.858 377.245 196.858C383.189 205.662 394.532 206.337 404.067 202.69C418.595 197.131 428.91 181.905 428.7 166.931C428.562 157.477 423.671 146.44 414.592 141.957C414.675 141.944 414.757 141.931 414.84 141.92C415.474 141.834 416.136 141.769 416.786 141.752C417.423 141.735 418.06 141.762 418.7 141.856C420.939 142.209 422.603 143.218 423.85 144.617C425.785 146.783 426.764 149.835 427.654 152.684C428.546 155.576 429.557 158.323 431.207 160.665C432.321 162.253 433.734 163.651 435.596 164.789C435.92 164.981 436.346 164.88 436.558 164.565C436.756 164.249 436.646 163.839 436.322 163.648C434.576 162.668 433.237 161.434 432.156 160.016C430.483 157.815 429.434 155.189 428.491 152.431C427.501 149.503 426.382 146.407 424.376 144.178C423.015 142.669 421.25 141.54 418.816 141.135C418.148 141.019 417.455 140.975 416.777 140.976C416.085 140.978 415.408 141.027 414.746 141.101C414.235 141.155 413.74 141.24 413.245 141.347C412.362 140.994 411.453 140.699 410.505 140.471C415.247 128.082 403.609 118.242 391.7 116.223C379.999 114.238 368.718 119.175 360.687 127.186C361.443 125.204 362.341 123.335 362.906 121.93C365.702 115.156 370.309 109.214 376.197 105.337C379.236 103.34 382.61 101.888 386.241 101.155C389.68 100.464 393.347 100.416 397.175 101.134C402.215 102.1 406.038 104.473 409.016 107.689C412.021 110.919 414.181 114.995 415.947 119.335C417.728 123.716 419.667 128.738 423.021 132.019C425.347 134.299 428.339 135.758 432.378 135.667C432.751 135.655 433.06 135.347 433.049 134.978C433.038 134.609 432.711 134.32 432.337 134.332C428.715 134.471 426.005 133.198 423.881 131.184C420.588 128.053 418.667 123.196 416.877 118.977C415.012 114.558 412.74 110.427 409.636 107.156C406.504 103.857 402.54 101.425 397.321 100.467C393.381 99.73 389.618 99.7892 386.096 100.485C382.368 101.221 378.884 102.68 375.748 104.697C369.668 108.608 364.842 114.62 361.884 121.527C361.121 123.281 359.868 125.748 358.99 128.268Z" fill="black"/>
<mask id="mask0_60_1864" style="mask-type:alpha" maskUnits="userSpaceOnUse" x="152" y="184" width="194" height="171">
<path d="M345.246 241.126C355.092 273.564 250.668 360.305 220.322 353.903C189.972 347.488 163.15 202.66 163.15 202.66L152.293 184.688L185.858 193.164L182.92 197.331C182.92 197.331 220.785 284.208 233.087 291.909C239.203 295.741 262.394 248.426 300.833 233.307C342.746 216.839 339.614 222.571 345.246 241.126Z" fill="url(#paint7_linear_60_1864)"/>
</mask>
<g mask="url(#mask0_60_1864)">
<path d="M345.246 241.126C355.092 273.564 250.668 360.305 220.322 353.903C189.972 347.488 163.15 202.66 163.15 202.66L152.293 184.688L185.858 193.164L182.92 197.331C182.92 197.331 220.785 284.208 233.087 291.909C239.203 295.741 262.394 248.426 300.833 233.307C342.746 216.839 339.614 222.571 345.246 241.126Z" fill="url(#paint8_linear_60_1864)"/>
<path d="M256.858 250.786C267.16 250.658 283.593 255.414 288.194 265.19C290.833 270.792 288.97 276.832 289.825 282.705C291.728 295.797 302.405 309.497 316.867 310.815C334.565 312.443 343.163 290.408 348.137 277.897C354.815 261.053 362.072 239.282 348.72 223.524C346.334 220.705 343.485 218.354 340.356 216.355C336.202 213.694 331.662 211.72 326.903 210.355C320.963 208.651 314.656 207.813 308.473 208.096C298.306 208.579 288.438 212.295 279.957 217.55C268.962 224.39 260.433 233.459 253.244 243.928L256.858 250.786Z" fill="url(#paint9_linear_60_1864)"/>
</g>
<path d="M364.444 215.89C413.006 219.79 429.421 220.752 427.222 307.404C426.455 337.88 420.975 387.303 402.074 404.976C366.174 438.544 305.86 425.244 305.86 425.244C305.86 425.244 322.14 337.874 307.743 290.814C290.338 234.008 330.141 213.134 364.444 215.89Z" fill="url(#paint10_linear_60_1864)"/>
<path d="M252.752 103.911C248.848 88.9647 234.467 79.5174 220.653 82.8285L110.521 109.224C96.7171 112.532 88.6765 127.353 92.5809 142.3L149.633 360.702C153.538 375.648 167.919 385.096 181.723 381.787L291.854 355.392C305.668 352.081 313.709 337.258 309.805 322.313L252.752 103.911Z" fill="url(#paint11_linear_60_1864)"/>
<path d="M257.978 97.6271C254.044 82.569 239.465 73.0737 225.435 76.4364L113.584 103.244C99.5643 106.604 91.3717 121.557 95.3053 136.615L152.783 356.643C156.716 371.7 171.296 381.196 185.316 377.836L297.166 351.029C311.196 347.666 319.389 332.712 315.455 317.655L257.978 97.6271Z" fill="url(#paint12_linear_60_1864)"/>
<path d="M255.462 107.439C251.838 93.5674 238.18 84.8746 224.974 88.0396L119.698 113.272C106.502 116.434 98.7271 130.264 102.351 144.136L155.3 346.829C158.924 360.7 172.582 369.394 185.778 366.231L291.055 340.999C304.26 337.834 312.034 324.003 308.411 310.133L255.462 107.439Z" fill="#181131"/>
<path d="M195.487 189.259C216.538 184.213 239.486 202.638 246.741 230.411C253.996 258.185 242.812 284.789 221.761 289.835C200.71 294.88 177.763 276.455 170.508 248.682C163.252 220.909 174.436 194.304 195.487 189.259Z" fill="#E3E3FE"/>
<path d="M215.174 290.744C214.936 287.728 214.08 284.73 213.284 281.605C211.899 276.304 210.159 270.824 209.047 265.302C208.273 261.498 207.803 257.673 207.933 253.869C208.001 251.516 208.455 249.288 209.148 247.133C211.755 239.065 217.904 232.154 218.044 223.41C218.081 220.347 217.151 216.113 214.926 213.415C213.578 211.798 211.728 210.789 209.274 211.177C205.699 211.749 203.366 214.118 201.581 217.072C198.653 221.888 197.137 228.228 194.942 232.308C191.803 238.176 186.881 242.445 181.072 245.086C177.732 246.603 174.1 247.574 170.331 247.99L169.476 244.109C172.971 243.857 176.36 243.068 179.47 241.74C184.645 239.533 189.061 235.862 191.938 230.762C194.627 225.96 196.522 218.033 200.699 213.103C202.769 210.653 205.369 208.882 208.786 208.383C212.434 207.841 215.194 209.296 217.166 211.698C219.762 214.89 220.925 219.847 220.875 223.454C220.87 225.793 220.438 228.022 219.79 230.177C217.368 238.197 211.304 245.179 211.173 253.955C211.113 257.522 211.649 261.092 212.443 264.639C213.666 270.079 215.513 275.464 217.008 280.679C217.927 283.972 218.885 287.135 219.228 290.328L215.174 290.744Z" fill="#6562F9"/>
<path d="M192.576 282.808C192.138 278.096 192.623 273.314 194.153 268.929C195.573 264.753 197.955 260.879 199.664 256.794C200.355 255.137 200.926 253.444 201.278 251.675C201.488 250.455 201.467 246.407 200.438 243.734C200.111 242.903 199.786 242.165 199.145 241.987C198.812 241.896 198.453 242.04 197.994 242.305C196.616 243.104 195.7 244.574 194.916 246.212C193.611 248.976 192.808 252.227 191.813 254.405C189.824 258.769 186.544 263.757 182.414 267.517C181.618 268.244 180.79 268.922 179.934 269.542L177.84 266.274C179.178 265.358 180.448 264.278 181.635 263.102C184.694 260.049 187.169 256.366 188.819 253.068C190.073 250.531 191.102 246.541 192.923 243.557C193.879 241.988 195.035 240.676 196.497 239.866C197.727 239.177 198.796 239.05 199.706 239.245C200.758 239.475 201.663 240.157 202.336 241.214C204.249 244.154 204.399 250.462 204.097 252.17C203.727 254.131 203.116 256.007 202.405 257.843C200.797 261.891 198.546 265.759 197.268 269.891C195.992 274.032 195.715 278.537 196.332 282.925C196.462 283.823 196.632 284.717 196.841 285.6L192.576 282.808Z" fill="#6562F9"/>
<path d="M191.831 212.638C193.411 207.553 197.805 203.541 202.795 201.896C207.908 200.215 213.617 200.981 217.559 205.445C219.183 207.358 220.51 209.404 221.558 211.557C223.169 214.86 224.118 218.406 224.603 222.034C225.438 228.101 224.926 234.402 223.832 240.336C223.663 241.46 224.467 242.516 225.636 242.689C226.805 242.862 227.902 242.086 228.071 240.962C228.886 234.635 229.035 227.95 227.873 221.563C227.184 217.663 225.999 213.881 224.172 210.347C222.989 208.013 221.525 205.783 219.748 203.704C215.068 198.1 208.107 197.011 201.773 198.827C195.583 200.602 190.028 205.231 187.766 211.333C187.409 212.411 188.002 213.588 189.132 213.945C190.261 214.303 191.474 213.718 191.831 212.638Z" fill="#6562F9"/>
<path d="M218.761 249.182C217.93 251.317 217.479 253.553 217.293 255.876C217.186 257.324 217.152 258.796 217.211 260.283C217.238 261.147 217.289 262.017 217.34 262.888C217.413 264.181 217.508 265.474 217.625 266.762C217.919 270.08 218.351 273.335 218.799 276.32C219.047 277.436 220.202 278.146 221.352 277.91C222.503 277.677 223.23 276.583 222.983 275.466C222.277 273.101 221.505 270.565 220.944 267.915C220.575 266.249 220.285 264.545 220.169 262.839C220.056 261.139 220.12 259.443 220.349 257.791C220.676 255.333 221.46 253.02 222.65 250.912C223.13 249.879 222.654 248.651 221.582 248.174C220.51 247.696 219.24 248.149 218.761 249.182Z" fill="#6562F9"/>
<path d="M231.88 261.782C233.596 257.472 235.003 252.992 236.023 248.463C236.45 246.64 236.811 244.815 237.125 242.981C237.312 241.756 237.498 240.528 237.66 239.294C238.329 234.093 238.303 228.849 237.175 223.604C236.886 222.498 235.719 221.823 234.578 222.096C233.437 222.37 232.739 223.491 233.028 224.598C234.13 228.141 234.737 231.729 234.8 235.343C234.867 237.793 234.717 240.255 234.294 242.688C233.893 245.116 233.241 247.513 232.446 249.867C231.254 253.399 229.673 256.796 227.959 260.103C227.482 261.144 227.977 262.364 229.047 262.832C230.137 263.293 231.381 262.828 231.88 261.782Z" fill="#6562F9"/>
<path d="M178.68 232.811C179.816 231.339 180.753 229.782 181.623 228.136C182.003 227.395 182.38 226.648 182.757 225.898C183.135 225.153 183.514 224.409 183.893 223.664C184.341 222.769 184.771 221.884 185.197 220.983C185.85 219.604 186.441 218.24 186.982 216.852C187.267 215.751 186.596 214.617 185.443 214.333C184.31 214.045 183.139 214.709 182.833 215.815C182.593 217.427 182.314 219.057 181.852 220.661C181.532 221.713 181.167 222.763 180.698 223.749C180.206 224.736 179.609 225.654 178.935 226.533C177.953 227.835 176.788 228.943 175.522 229.998C174.726 230.83 174.78 232.137 175.645 232.914C176.509 233.693 177.863 233.647 178.68 232.811Z" fill="#6562F9"/>
<path d="M272.363 273.11L275.638 285.648C276.656 289.545 274.212 293.49 270.181 294.456L256.488 297.738L255.635 294.47L269.327 291.188C271.497 290.668 272.812 288.55 272.265 286.456L268.99 273.918L272.363 273.11Z" fill="#E3E3FE"/>
<path d="M172.271 297.1L175.546 309.637C176.093 311.731 178.286 313.009 180.456 312.489L194.148 309.207L195.002 312.475L181.309 315.756C177.278 316.723 173.182 314.346 172.164 310.448L168.889 297.91L172.271 297.1Z" fill="#E3E3FE"/>
<path d="M162.351 187.484L163.205 190.752L149.512 194.034C147.342 194.554 146.035 196.671 146.582 198.764L149.858 211.302L146.476 212.112L143.201 199.575C142.183 195.677 144.628 191.732 148.659 190.766L162.351 187.484Z" fill="#E3E3FE"/>
<path d="M223.837 172.748L237.53 169.466C241.56 168.5 245.657 170.877 246.675 174.774L249.95 187.312L246.577 188.121L243.302 175.583C242.755 173.489 240.553 172.214 238.383 172.734L224.691 176.016L223.837 172.748Z" fill="#E3E3FE"/>
<path d="M182.593 327.774C183.444 327.57 184.187 327.705 184.822 328.178C185.578 328.737 186.167 329.823 186.589 331.437C187.009 333.047 187.014 334.276 186.624 335.118C186.304 335.811 185.714 336.261 184.863 336.465C184.002 336.671 183.232 336.517 182.543 336.006C181.844 335.497 181.292 334.424 180.865 332.79C180.446 331.188 180.432 329.966 180.822 329.124C181.152 328.428 181.742 327.978 182.593 327.774ZM182.946 329.126C182.741 329.176 182.574 329.283 182.442 329.448C182.321 329.611 182.257 329.866 182.25 330.213C182.247 330.662 182.371 331.387 182.632 332.385C182.893 333.384 183.123 334.057 183.323 334.406C183.534 334.753 183.722 334.972 183.918 335.056C184.104 335.144 184.305 335.161 184.51 335.112C184.715 335.062 184.873 334.958 185.004 334.793C185.135 334.628 185.199 334.372 185.196 334.028C185.21 333.58 185.076 332.861 184.816 331.862C184.555 330.863 184.324 330.19 184.124 329.841C183.924 329.492 183.725 329.275 183.539 329.186C183.342 329.099 183.151 329.077 182.946 329.126Z" fill="#787BC9"/>
<path d="M189.43 326.136C190.281 325.932 191.024 326.066 191.659 326.539C192.415 327.098 193.004 328.185 193.425 329.798C193.846 331.409 193.861 332.635 193.471 333.476C193.141 334.172 192.551 334.622 191.7 334.826C190.849 335.03 190.069 334.878 189.38 334.367C188.691 333.856 188.128 332.785 187.701 331.152C187.283 329.55 187.269 328.327 187.669 327.483C187.988 326.789 188.579 326.34 189.43 326.136ZM189.783 327.488C189.578 327.537 189.41 327.645 189.289 327.807C189.158 327.973 189.094 328.227 189.086 328.574C189.084 329.023 189.218 329.746 189.479 330.744C189.74 331.743 189.97 332.416 190.17 332.765C190.37 333.114 190.568 333.331 190.755 333.418C190.941 333.505 191.141 333.522 191.346 333.473C191.551 333.424 191.72 333.317 191.841 333.154C191.972 332.989 192.036 332.734 192.043 332.387C192.046 331.942 191.923 331.22 191.662 330.221C191.401 329.222 191.171 328.549 190.971 328.2C190.761 327.854 190.572 327.633 190.375 327.547C190.189 327.458 189.988 327.439 189.783 327.488Z" fill="#787BC9"/>
<path d="M199.964 332.691L198.283 333.094L196.677 326.946C196.208 327.651 195.588 328.237 194.817 328.706L194.43 327.226C194.834 326.981 195.247 326.602 195.658 326.09C196.079 325.575 196.309 325.038 196.369 324.473L197.732 324.146L199.964 332.691Z" fill="#787BC9"/>
<path d="M206.135 331.212L204.443 331.617L202.838 325.47C202.368 326.174 201.748 326.761 200.977 327.23L200.59 325.75C200.995 325.505 201.408 325.125 201.819 324.613C202.24 324.099 202.47 323.561 202.529 322.996L203.902 322.667L206.135 331.212Z" fill="#787BC9"/>
<path d="M212.294 329.736L210.603 330.141L208.997 323.994C208.528 324.698 207.907 325.285 207.137 325.754L206.75 324.273C207.154 324.028 207.568 323.649 207.989 323.134C208.399 322.622 208.629 322.085 208.689 321.52L210.062 321.191L212.294 329.736Z" fill="#787BC9"/>
<path d="M215.433 319.904C216.284 319.7 217.027 319.834 217.663 320.307C218.419 320.866 219.007 321.952 219.429 323.566C219.849 325.176 219.865 326.402 219.475 327.244C219.145 327.94 218.554 328.39 217.703 328.594C216.853 328.798 216.072 328.646 215.383 328.135C214.694 327.624 214.132 326.553 213.705 324.919C213.286 323.317 213.272 322.095 213.672 321.251C213.992 320.557 214.583 320.108 215.433 319.904ZM215.786 321.256C215.582 321.305 215.424 321.41 215.293 321.575C215.161 321.74 215.097 321.995 215.1 322.339C215.087 322.791 215.222 323.514 215.483 324.512C215.743 325.511 215.974 326.184 216.174 326.533C216.374 326.882 216.572 327.099 216.758 327.186C216.955 327.27 217.145 327.29 217.35 327.241C217.555 327.192 217.723 327.085 217.854 326.92C217.975 326.757 218.039 326.502 218.047 326.155C218.05 325.71 217.927 324.987 217.666 323.989C217.405 322.99 217.175 322.317 216.974 321.968C216.775 321.619 216.576 321.401 216.379 321.315C216.193 321.226 215.992 321.206 215.786 321.256Z" fill="#787BC9"/>
<path d="M222.28 318.263C223.131 318.059 223.874 318.193 224.509 318.666C225.265 319.225 225.844 320.314 226.266 321.928C226.686 323.538 226.701 324.764 226.311 325.606C225.991 326.3 225.401 326.749 224.55 326.953C223.689 327.16 222.919 327.005 222.23 326.494C221.531 325.985 220.979 324.912 220.552 323.278C220.133 321.676 220.119 320.454 220.509 319.612C220.839 318.916 221.419 318.469 222.28 318.263ZM222.633 319.615C222.428 319.664 222.261 319.772 222.129 319.937C222.008 320.099 221.944 320.354 221.937 320.701C221.934 321.15 222.059 321.875 222.319 322.874C222.58 323.872 222.81 324.546 223.01 324.895C223.211 325.244 223.409 325.46 223.605 325.545C223.791 325.632 223.992 325.649 224.197 325.6C224.402 325.551 224.56 325.446 224.691 325.281C224.822 325.116 224.886 324.861 224.883 324.516C224.897 324.068 224.763 323.349 224.503 322.35C224.242 321.352 224.011 320.678 223.811 320.329C223.611 319.98 223.412 319.763 223.226 319.674C223.029 319.587 222.838 319.565 222.633 319.615Z" fill="#787BC9"/>
<path d="M229.117 316.624C229.967 316.42 230.711 316.555 231.346 317.028C232.102 317.586 232.691 318.673 233.112 320.287C233.533 321.897 233.548 323.123 233.158 323.965C232.828 324.661 232.238 325.11 231.387 325.314C230.526 325.521 229.756 325.367 229.067 324.856C228.378 324.344 227.815 323.274 227.388 321.64C226.97 320.038 226.956 318.816 227.356 317.971C227.676 317.278 228.266 316.828 229.117 316.624ZM229.47 317.976C229.265 318.025 229.097 318.133 228.976 318.296C228.845 318.461 228.781 318.715 228.773 319.062C228.771 319.511 228.895 320.236 229.156 321.235C229.416 322.234 229.647 322.907 229.857 323.254C230.057 323.603 230.255 323.819 230.442 323.906C230.628 323.993 230.828 324.011 231.033 323.961C231.238 323.912 231.406 323.805 231.527 323.643C231.659 323.478 231.722 323.222 231.73 322.875C231.733 322.43 231.61 321.708 231.349 320.709C231.088 319.711 230.858 319.037 230.648 318.691C230.448 318.342 230.259 318.122 230.062 318.035C229.876 317.946 229.675 317.927 229.47 317.976Z" fill="#787BC9"/>
<path d="M239.651 323.179L237.97 323.582L236.364 317.435C235.895 318.139 235.275 318.725 234.504 319.194L234.117 317.714C234.521 317.469 234.934 317.09 235.345 316.578C235.756 316.066 235.996 315.526 236.056 314.961L237.419 314.634L239.651 323.179Z" fill="#787BC9"/>
<path d="M245.811 321.703L244.13 322.105L242.524 315.958C242.055 316.662 241.434 317.249 240.664 317.718L240.277 316.237C240.682 315.992 241.095 315.613 241.505 315.101C241.926 314.587 242.157 314.049 242.216 313.484L243.579 313.158L245.811 321.703Z" fill="#787BC9"/>
<path d="M251.982 320.224L250.29 320.629L248.685 314.482C248.215 315.186 247.595 315.773 246.824 316.242L246.438 314.761C246.842 314.516 247.255 314.137 247.665 313.625C248.086 313.11 248.317 312.573 248.376 312.008L249.749 311.679L251.982 320.224Z" fill="#787BC9"/>
<path d="M258.142 318.748L256.45 319.153L254.844 313.005C254.375 313.71 253.755 314.296 252.985 314.765L252.598 313.285C253.012 313.037 253.415 312.661 253.836 312.146C254.247 311.634 254.477 311.097 254.536 310.532L255.91 310.203L258.142 318.748Z" fill="#787BC9"/>
<path d="M261.28 308.915C262.141 308.709 262.874 308.846 263.51 309.319C264.266 309.878 264.854 310.964 265.276 312.578C265.696 314.188 265.712 315.414 265.322 316.256C264.992 316.952 264.412 317.399 263.551 317.606C262.7 317.81 261.919 317.658 261.231 317.147C260.541 316.635 259.979 315.565 259.552 313.931C259.133 312.329 259.119 311.107 259.519 310.263C259.839 309.569 260.429 309.119 261.28 308.915ZM261.633 310.268C261.428 310.317 261.271 310.422 261.14 310.587C261.009 310.752 260.944 311.007 260.947 311.351C260.934 311.803 261.069 312.525 261.33 313.524C261.591 314.523 261.821 315.196 262.021 315.545C262.221 315.894 262.419 316.111 262.605 316.198C262.802 316.282 262.992 316.302 263.197 316.253C263.402 316.203 263.57 316.097 263.701 315.932C263.822 315.769 263.886 315.514 263.893 315.166C263.897 314.721 263.774 313.999 263.513 313.001C263.252 312.002 263.022 311.329 262.822 310.98C262.622 310.631 262.423 310.413 262.226 310.327C262.04 310.238 261.838 310.218 261.633 310.268Z" fill="#787BC9"/>
<path d="M268.127 307.274C268.978 307.07 269.721 307.205 270.357 307.678C271.113 308.237 271.701 309.323 272.123 310.937C272.543 312.547 272.549 313.775 272.159 314.617C271.839 315.311 271.248 315.761 270.397 315.965C269.536 316.171 268.766 316.017 268.077 315.506C267.378 314.997 266.826 313.924 266.399 312.29C265.98 310.688 265.966 309.466 266.356 308.624C266.686 307.928 267.277 307.478 268.127 307.274ZM268.48 308.626C268.276 308.675 268.107 308.783 267.976 308.948C267.855 309.111 267.791 309.365 267.784 309.712C267.781 310.161 267.905 310.887 268.166 311.885C268.427 312.884 268.658 313.557 268.858 313.906C269.058 314.255 269.256 314.472 269.452 314.556C269.639 314.643 269.839 314.661 270.044 314.611C270.249 314.562 270.406 314.458 270.538 314.293C270.669 314.128 270.733 313.872 270.73 313.528C270.744 313.08 270.61 312.36 270.35 311.362C270.089 310.363 269.859 309.69 269.658 309.341C269.459 308.992 269.26 308.775 269.073 308.685C268.876 308.599 268.686 308.577 268.48 308.626Z" fill="#787BC9"/>
<path d="M274.964 305.636C275.814 305.432 276.558 305.567 277.193 306.04C277.949 306.598 278.538 307.685 278.959 309.299C279.38 310.909 279.395 312.135 279.005 312.977C278.675 313.673 278.085 314.123 277.234 314.327C276.373 314.533 275.603 314.379 274.914 313.868C274.225 313.356 273.662 312.286 273.235 310.652C272.817 309.05 272.802 307.828 273.202 306.984C273.522 306.29 274.113 305.84 274.964 305.636ZM275.317 306.988C275.112 307.037 274.944 307.145 274.823 307.308C274.692 307.473 274.628 307.727 274.62 308.074C274.618 308.523 274.742 309.248 275.003 310.247C275.264 311.246 275.504 311.917 275.704 312.266C275.904 312.615 276.102 312.831 276.289 312.918C276.475 313.005 276.675 313.022 276.88 312.973C277.085 312.924 277.254 312.817 277.375 312.655C277.506 312.49 277.57 312.234 277.577 311.887C277.581 311.442 277.457 310.72 277.196 309.721C276.935 308.723 276.705 308.049 276.495 307.703C276.295 307.354 276.096 307.136 275.91 307.047C275.723 306.958 275.522 306.939 275.317 306.988Z" fill="#787BC9"/>
<path d="M189.894 349.761L188.203 350.166L186.597 344.019C186.127 344.723 185.507 345.31 184.737 345.779L184.35 344.299C184.754 344.053 185.167 343.674 185.578 343.162C185.999 342.647 186.229 342.11 186.288 341.545L187.662 341.216L189.894 349.761Z" fill="#787BC9"/>
<path d="M196.054 348.285L194.362 348.69L192.757 342.542C192.287 343.247 191.667 343.833 190.907 344.3L190.52 342.82C190.924 342.574 191.327 342.198 191.748 341.683C192.159 341.171 192.399 340.631 192.448 340.069L193.822 339.74L196.054 348.285Z" fill="#787BC9"/>
<path d="M202.214 346.808L200.523 347.213L198.917 341.066C198.448 341.77 197.827 342.357 197.067 342.823L196.68 341.343C197.084 341.098 197.487 340.721 197.908 340.207C198.319 339.695 198.559 339.155 198.619 338.59L199.982 338.263L202.214 346.808Z" fill="#787BC9"/>
<path d="M205.363 336.973C206.214 336.769 206.957 336.904 207.593 337.377C208.338 337.939 208.927 339.025 209.349 340.639C209.769 342.249 209.784 343.475 209.394 344.317C209.074 345.01 208.484 345.46 207.633 345.664C206.772 345.871 206.002 345.716 205.303 345.208C204.614 344.696 204.062 343.623 203.635 341.989C203.216 340.387 203.202 339.165 203.592 338.323C203.912 337.63 204.502 337.18 205.363 336.973ZM205.716 338.326C205.512 338.375 205.343 338.483 205.212 338.648C205.081 338.813 205.017 339.068 205.02 339.412C205.017 339.861 205.142 340.586 205.403 341.585C205.663 342.583 205.894 343.256 206.094 343.605C206.294 343.954 206.492 344.171 206.678 344.258C206.875 344.343 207.075 344.36 207.28 344.311C207.475 344.264 207.643 344.158 207.774 343.993C207.895 343.83 207.959 343.574 207.966 343.227C207.97 342.782 207.846 342.06 207.586 341.061C207.325 340.063 207.094 339.39 206.894 339.041C206.694 338.692 206.496 338.474 206.309 338.385C206.112 338.298 205.911 338.279 205.716 338.326Z" fill="#787BC9"/>
<path d="M212.199 335.335C213.05 335.131 213.793 335.265 214.429 335.738C215.185 336.297 215.774 337.384 216.195 338.998C216.616 340.608 216.631 341.834 216.231 342.678C215.911 343.372 215.32 343.821 214.47 344.025C213.609 344.232 212.839 344.077 212.15 343.566C211.461 343.055 210.898 341.984 210.471 340.351C210.052 338.749 210.038 337.526 210.428 336.685C210.758 335.988 211.348 335.539 212.199 335.335ZM212.553 336.687C212.348 336.736 212.18 336.844 212.059 337.007C211.928 337.172 211.863 337.426 211.856 337.773C211.854 338.222 211.978 338.947 212.239 339.946C212.499 340.945 212.73 341.618 212.93 341.967C213.14 342.313 213.328 342.532 213.524 342.617C213.711 342.704 213.911 342.721 214.116 342.672C214.321 342.623 214.489 342.516 214.61 342.354C214.741 342.188 214.805 341.933 214.803 341.588C214.816 341.141 214.693 340.419 214.432 339.42C214.171 338.421 213.931 337.751 213.73 337.402C213.53 337.053 213.332 336.835 213.146 336.746C212.949 336.66 212.758 336.638 212.553 336.687Z" fill="#787BC9"/>
<path d="M219.036 333.697C219.887 333.493 220.63 333.627 221.265 334.1C222.021 334.659 222.61 335.746 223.032 337.36C223.452 338.97 223.467 340.196 223.077 341.038C222.747 341.733 222.157 342.183 221.306 342.387C220.456 342.591 219.675 342.439 218.986 341.928C218.297 341.417 217.735 340.346 217.308 338.713C216.889 337.111 216.875 335.888 217.275 335.044C217.595 334.35 218.186 333.901 219.036 333.697ZM219.389 335.049C219.185 335.098 219.027 335.203 218.896 335.368C218.764 335.534 218.7 335.788 218.703 336.133C218.69 336.584 218.825 337.307 219.086 338.305C219.346 339.304 219.577 339.977 219.777 340.326C219.977 340.675 220.175 340.892 220.361 340.979C220.558 341.064 220.748 341.083 220.953 341.034C221.158 340.985 221.326 340.878 221.457 340.713C221.578 340.55 221.642 340.295 221.65 339.948C221.653 339.503 221.529 338.781 221.269 337.782C221.008 336.783 220.778 336.11 220.577 335.761C220.378 335.412 220.179 335.194 219.982 335.108C219.796 335.019 219.594 335 219.389 335.049Z" fill="#787BC9"/>
<path d="M229.581 340.249L227.89 340.654L226.284 334.507C225.815 335.211 225.194 335.798 224.424 336.267L224.037 334.787C224.441 334.541 224.854 334.162 225.265 333.65C225.686 333.135 225.916 332.598 225.975 332.033L227.349 331.704L229.581 340.249Z" fill="#787BC9"/>
<path d="M235.741 338.773L234.05 339.178L232.444 333.031C231.974 333.735 231.354 334.321 230.584 334.79L230.197 333.31C230.601 333.065 231.014 332.686 231.425 332.174C231.846 331.659 232.076 331.122 232.135 330.557L233.509 330.228L235.741 338.773Z" fill="#787BC9"/>
<path d="M241.901 337.296L240.21 337.702L238.604 331.554C238.135 332.258 237.515 332.845 236.754 333.312L236.368 331.831C236.772 331.586 237.175 331.209 237.595 330.695C238.006 330.183 238.246 329.643 238.295 329.08L239.669 328.752L241.901 337.296Z" fill="#787BC9"/>
<path d="M248.061 335.82L246.37 336.225L244.764 330.078C244.294 330.782 243.675 331.369 242.914 331.835L242.527 330.355C242.932 330.11 243.334 329.733 243.755 329.218C244.166 328.706 244.406 328.167 244.466 327.602L245.829 327.275L248.061 335.82Z" fill="#787BC9"/>
<path d="M251.21 325.985C252.061 325.781 252.804 325.916 253.44 326.389C254.196 326.948 254.774 328.037 255.196 329.651C255.616 331.261 255.632 332.486 255.242 333.328C254.922 334.022 254.331 334.472 253.48 334.676C252.619 334.882 251.849 334.728 251.15 334.22C250.461 333.708 249.909 332.635 249.482 331.001C249.063 329.399 249.049 328.177 249.439 327.335C249.769 326.639 250.349 326.192 251.21 325.985ZM251.564 327.338C251.359 327.387 251.19 327.495 251.059 327.66C250.939 327.822 250.874 328.076 250.867 328.423C250.865 328.873 250.989 329.598 251.25 330.596C251.51 331.595 251.741 332.268 251.941 332.617C252.141 332.966 252.339 333.183 252.535 333.267C252.721 333.354 252.922 333.372 253.127 333.323C253.322 333.276 253.49 333.169 253.621 333.004C253.753 332.839 253.816 332.584 253.813 332.239C253.827 331.791 253.694 331.072 253.433 330.073C253.172 329.075 252.941 328.401 252.741 328.052C252.541 327.703 252.343 327.486 252.156 327.397C251.959 327.31 251.758 327.291 251.564 327.338Z" fill="#787BC9"/>
<path d="M258.046 324.347C258.897 324.143 259.64 324.277 260.276 324.75C261.032 325.309 261.621 326.395 262.042 328.009C262.463 329.619 262.478 330.845 262.078 331.69C261.758 332.384 261.167 332.833 260.317 333.037C259.456 333.243 258.686 333.089 257.997 332.578C257.308 332.067 256.745 330.996 256.318 329.362C255.899 327.76 255.886 326.538 256.276 325.696C256.606 325 257.196 324.551 258.046 324.347ZM258.4 325.699C258.195 325.748 258.027 325.856 257.906 326.018C257.775 326.183 257.711 326.438 257.703 326.785C257.701 327.234 257.825 327.959 258.086 328.958C258.347 329.956 258.577 330.63 258.787 330.976C258.987 331.325 259.175 331.544 259.372 331.629C259.558 331.716 259.759 331.733 259.963 331.684C260.168 331.635 260.336 331.528 260.457 331.365C260.588 331.2 260.653 330.945 260.66 330.598C260.663 330.153 260.54 329.43 260.279 328.432C260.018 327.433 259.788 326.76 259.578 326.413C259.378 326.064 259.179 325.847 258.993 325.758C258.796 325.671 258.605 325.649 258.4 325.699Z" fill="#787BC9"/>
<path d="M268.581 330.902L266.9 331.305L265.294 325.157C264.815 325.864 264.205 326.448 263.434 326.917L263.048 325.437C263.452 325.191 263.865 324.812 264.275 324.3C264.686 323.788 264.926 323.248 264.986 322.684L266.349 322.357L268.581 330.902Z" fill="#787BC9"/>
<path d="M274.741 329.425L273.06 329.828L271.454 323.681C270.985 324.385 270.365 324.971 269.594 325.44L269.208 323.96C269.612 323.715 270.025 323.336 270.436 322.824C270.856 322.309 271.086 321.772 271.146 321.207L272.509 320.88L274.741 329.425Z" fill="#787BC9"/>
<path d="M277.89 319.591C278.741 319.387 279.484 319.521 280.119 319.994C280.875 320.553 281.464 321.64 281.886 323.253C282.306 324.864 282.321 326.09 281.921 326.934C281.601 327.628 281.011 328.077 280.16 328.281C279.299 328.488 278.529 328.333 277.84 327.822C277.151 327.311 276.588 326.24 276.161 324.607C275.743 323.004 275.729 321.782 276.119 320.94C276.449 320.245 277.039 319.795 277.89 319.591ZM278.243 320.943C278.039 320.992 277.87 321.1 277.749 321.262C277.618 321.428 277.554 321.682 277.547 322.029C277.544 322.478 277.668 323.203 277.929 324.202C278.19 325.2 278.42 325.874 278.621 326.223C278.831 326.569 279.019 326.788 279.215 326.873C279.401 326.96 279.602 326.977 279.807 326.928C280.012 326.879 280.18 326.772 280.301 326.609C280.432 326.444 280.496 326.189 280.503 325.842C280.507 325.397 280.373 324.677 280.112 323.678C279.851 322.68 279.621 322.006 279.421 321.657C279.221 321.308 279.023 321.091 278.836 321.002C278.639 320.915 278.449 320.894 278.243 320.943Z" fill="#787BC9"/>
<path d="M174.628 131.932C174.09 129.871 171.998 128.62 169.929 129.116C160.944 131.269 138.155 136.731 129.247 138.866C128.286 139.097 127.454 139.705 126.943 140.554C126.441 141.401 126.294 142.418 126.544 143.375C126.544 143.376 126.545 143.378 126.545 143.38C127.084 145.441 129.166 146.693 131.244 146.195C140.23 144.041 163.019 138.579 171.926 136.444C172.888 136.214 173.72 135.606 174.221 134.759C174.732 133.91 174.879 132.893 174.629 131.936C174.629 131.934 174.629 131.933 174.628 131.932Z" fill="#E3E3FE"/>
<path d="M245.267 137.839C244.967 136.69 243.813 135.989 242.647 136.268C228.592 139.637 147.689 159.028 133.702 162.38C133.154 162.511 132.685 162.854 132.397 163.334C132.11 163.812 132.04 164.383 132.181 164.923L132.182 164.927C132.482 166.076 133.636 166.775 134.802 166.496C148.857 163.128 229.76 143.737 243.747 140.385C244.295 140.253 244.764 139.91 245.029 139.437C245.317 138.959 245.409 138.382 245.268 137.843L245.267 137.839Z" fill="#E3E3FE"/>
<path d="M247.386 145.948C247.086 144.8 245.931 144.099 244.766 144.378C230.711 147.747 149.807 167.137 135.821 170.49C135.272 170.621 134.804 170.964 134.516 171.443C134.228 171.922 134.159 172.493 134.3 173.032L134.301 173.037C134.601 174.185 135.755 174.886 136.921 174.606C150.976 171.237 231.879 151.847 245.866 148.495C246.414 148.363 246.883 148.02 247.148 147.547C247.435 147.069 247.528 146.493 247.387 145.953L247.386 145.948Z" fill="#E3E3FE"/>
<mask id="mask1_60_1864" style="mask-type:alpha" maskUnits="userSpaceOnUse" x="204" y="225" width="246" height="177">
<path d="M413.692 226.632C446.527 238.25 464.178 365.216 434.835 391.346C405.476 417.472 274.067 386.666 237.599 383.404C204.977 398.804 201.783 368.222 205.589 369.177C222.501 373.415 225.638 360.252 225.638 360.252C225.638 360.252 226.289 358.959 223.047 352.165C229.288 349.968 238.207 363.34 238.207 363.34C238.207 363.34 376.92 349.496 390.539 344.471C397.313 341.975 371.993 295.84 381.208 256.669C384.37 243.243 394.911 219.985 413.692 226.632Z" fill="url(#paint13_linear_60_1864)"/>
</mask>
<g mask="url(#mask1_60_1864)">
<path d="M413.692 226.632C446.527 238.25 464.178 365.216 434.835 391.346C405.476 417.472 274.067 386.666 237.599 383.404C204.977 398.804 201.783 368.222 205.589 369.177C222.501 373.415 225.638 360.252 225.638 360.252C225.638 360.252 226.289 358.959 223.047 352.165C229.288 349.968 238.207 363.34 238.207 363.34C238.207 363.34 376.92 349.496 390.539 344.471C397.313 341.975 371.993 295.84 381.208 256.669C384.37 243.243 394.911 219.985 413.692 226.632Z" fill="url(#paint14_linear_60_1864)"/>
<path d="M370.101 301.423C376.015 293.3 389.59 283.295 400.439 285.52C406.658 286.794 410.612 291.844 416.015 294.673C428.056 300.98 445.734 300.795 455.285 290.283C466.988 277.428 453.618 257.595 446.079 246.262C435.92 231.019 421.986 212.39 401.027 213.439C397.28 213.625 393.651 214.451 390.154 215.706C385.505 217.366 381.203 219.737 377.283 222.642C372.389 226.268 368.004 230.696 364.626 235.694C359.087 243.923 356.423 253.843 355.854 263.596C355.138 276.256 357.724 288.317 362.263 300.164L370.101 301.423Z" fill="url(#paint15_linear_60_1864)"/>
</g>
<path d="M550.063 128.121C550.063 128.121 526.415 121.401 509.719 104.02C490.965 120.3 466.545 128.121 466.545 128.121V164.28C466.545 179.162 474.351 192.963 487.115 200.623C487.822 201.05 488.536 201.477 489.243 201.904C500.675 208.767 514.936 208.847 526.445 202.108C541.072 193.537 550.063 177.853 550.063 160.899V128.121Z" fill="url(#paint16_linear_60_1864)"/>
<path d="M539.003 136.062C539.003 136.062 521.619 131.097 509.344 118.256C495.558 130.284 477.605 136.062 477.605 136.062V162.811C477.605 173.79 483.352 183.969 492.753 189.646C493.252 189.949 493.75 190.247 494.244 190.546C502.67 195.633 513.206 195.688 521.683 190.697H521.688C532.415 184.381 539.003 172.861 539.003 160.41C539.003 148.637 539.003 136.062 539.003 136.062Z" fill="#181131"/>
<path d="M491.072 164.973L502.56 179.831C503.519 181.069 504.982 181.765 506.503 181.709C508.033 181.655 509.448 180.856 510.319 179.554L531.776 147.491C533.296 145.214 532.754 142.082 530.555 140.501C528.356 138.921 525.343 139.487 523.813 141.765L506.057 168.298L498.628 158.69C496.961 156.527 493.91 156.178 491.828 157.912C489.735 159.646 489.406 162.811 491.072 164.973Z" fill="url(#paint17_linear_60_1864)"/>
<path d="M403.422 65.9532C403.422 60.5731 399.062 56.2065 393.68 56.2065H290.246C284.864 56.2065 280.494 60.5731 280.494 65.9532C280.494 71.3333 284.864 75.6999 290.246 75.6999H393.68C399.062 75.6999 403.422 71.3333 403.422 65.9532Z" fill="#93D1FF"/>
<path d="M312.667 62.643C312.997 62.4566 313.415 62.5647 313.615 62.8886C313.713 63.0558 313.819 63.2286 313.885 63.3384C313.905 63.3705 313.919 63.4143 313.9 63.4468C313.89 63.4844 313.871 63.5186 313.834 63.5364C313.113 63.9452 309.599 65.9482 309.599 65.9482L313.876 68.283C313.915 68.3046 313.937 68.3337 313.953 68.3737C313.959 68.4082 313.96 68.4517 313.94 68.4849C313.874 68.597 313.774 68.7684 313.673 68.9405C313.482 69.2678 313.063 69.3831 312.728 69.2001C311.525 68.5437 308.913 67.1184 308.913 67.1184L308.961 72.011C308.961 72.011 308.609 72.0131 308.257 72.0145C307.877 72.0193 307.563 71.7111 307.564 71.3324C307.548 69.982 307.526 67.1334 307.526 67.1334C307.526 67.1334 303.979 69.1471 303.277 69.5462C303.204 69.5808 303.124 69.5623 303.085 69.4966C303.019 69.3868 302.904 69.2059 302.798 69.0315C302.705 68.8792 302.681 68.6986 302.728 68.5286C302.766 68.3535 302.877 68.2071 303.033 68.1199C304.223 67.4423 306.814 65.9725 306.814 65.9725L302.99 63.8853C302.842 63.8046 302.721 63.6568 302.676 63.4882C302.632 63.3196 302.649 63.1345 302.739 62.9823C302.843 62.8044 302.948 62.6245 303.014 62.5113C303.053 62.4456 303.143 62.4248 303.212 62.4624C303.922 62.8499 307.5 64.8024 307.5 64.8024C307.5 64.8024 307.472 61.9623 307.458 60.6098C307.461 60.4269 307.528 60.2456 307.658 60.1129C307.788 59.9801 307.973 59.909 308.156 59.9063C308.365 59.9049 308.574 59.9035 308.706 59.9011C308.784 59.9011 308.85 59.9651 308.845 60.04C308.854 60.8459 308.897 64.7928 308.897 64.7928C308.897 64.7928 311.476 63.3213 312.667 62.643Z" fill="#181131"/>
<path d="M330.356 62.643C330.687 62.4566 331.105 62.5647 331.306 62.8886C331.403 63.0558 331.509 63.2286 331.575 63.3384C331.595 63.3705 331.609 63.4143 331.59 63.4468C331.581 63.4844 331.561 63.5186 331.524 63.5364C330.803 63.9452 327.289 65.9482 327.289 65.9482L331.566 68.283C331.606 68.3046 331.627 68.3337 331.643 68.3737C331.649 68.4082 331.65 68.4517 331.63 68.4849C331.565 68.597 331.464 68.7684 331.363 68.9405C331.172 69.2678 330.753 69.3831 330.418 69.2001C329.215 68.5437 326.603 67.1184 326.603 67.1184L326.651 72.011C326.651 72.011 326.299 72.0131 325.947 72.0145C325.567 72.0193 325.253 71.7111 325.254 71.3324C325.238 69.982 325.216 67.1334 325.216 67.1334C325.216 67.1334 321.669 69.1471 320.967 69.5462C320.895 69.5808 320.815 69.5623 320.775 69.4966C320.709 69.3868 320.594 69.2059 320.488 69.0315C320.396 68.8792 320.371 68.6986 320.418 68.5286C320.456 68.3535 320.568 68.2071 320.723 68.1199C321.913 67.4423 324.504 65.9725 324.504 65.9725L320.68 63.8853C320.532 63.8046 320.411 63.6568 320.366 63.4882C320.322 63.3196 320.339 63.1345 320.429 62.9823C320.533 62.8044 320.638 62.6245 320.704 62.5113C320.743 62.4456 320.833 62.4248 320.902 62.4624C321.612 62.8499 325.19 64.8024 325.19 64.8024C325.19 64.8024 325.162 61.9623 325.148 60.6098C325.151 60.4269 325.218 60.2456 325.348 60.1129C325.478 59.9801 325.663 59.909 325.846 59.9063C326.055 59.9049 326.264 59.9035 326.396 59.9011C326.474 59.9011 326.54 59.9651 326.535 60.04C326.545 60.8459 326.587 64.7928 326.587 64.7928C326.587 64.7928 329.166 63.3213 330.356 62.643Z" fill="#181131"/>
<path d="M347.776 62.643C348.106 62.4566 348.525 62.5647 348.725 62.8886C348.822 63.0558 348.929 63.2286 348.995 63.3384C349.015 63.3705 349.028 63.4143 349.009 63.4468C349 63.4844 348.98 63.5186 348.944 63.5364C348.223 63.9452 344.708 65.9482 344.708 65.9482L348.986 68.283C349.025 68.3046 349.047 68.3337 349.063 68.3737C349.069 68.4082 349.069 68.4517 349.05 68.4849C348.984 68.597 348.884 68.7684 348.783 68.9405C348.591 69.2678 348.172 69.3831 347.837 69.2001C346.635 68.5437 344.023 67.1184 344.023 67.1184L344.071 72.011C344.071 72.011 343.718 72.0131 343.366 72.0145C342.986 72.0193 342.672 71.7111 342.673 71.3324C342.658 69.982 342.636 67.1334 342.636 67.1334C342.636 67.1334 339.088 69.1471 338.386 69.5462C338.314 69.5808 338.234 69.5623 338.194 69.4966C338.129 69.3868 338.014 69.2059 337.908 69.0315C337.815 68.8792 337.791 68.6986 337.838 68.5286C337.876 68.3535 337.987 68.2071 338.142 68.1199C339.333 67.4423 341.924 65.9725 341.924 65.9725L338.1 63.8853C337.952 63.8046 337.831 63.6568 337.786 63.4882C337.742 63.3196 337.759 63.1345 337.848 62.9823C337.953 62.8044 338.058 62.6245 338.124 62.5113C338.163 62.4456 338.253 62.4248 338.322 62.4624C339.031 62.8499 342.609 64.8024 342.609 64.8024C342.609 64.8024 342.582 61.9623 342.568 60.6098C342.571 60.4269 342.638 60.2456 342.768 60.1129C342.897 59.9801 343.082 59.909 343.266 59.9063C343.475 59.9049 343.684 59.9035 343.815 59.9011C343.893 59.9011 343.96 59.9651 343.955 60.04C343.964 60.8459 344.007 64.7928 344.007 64.7928C344.007 64.7928 346.585 63.3213 347.776 62.643Z" fill="#181131"/>
<path d="M364.747 62.643C365.078 62.4566 365.496 62.5647 365.696 62.8886C365.793 63.0558 365.9 63.2286 365.966 63.3384C365.986 63.3705 365.999 63.4143 365.98 63.4468C365.971 63.4844 365.951 63.5186 365.915 63.5364C365.194 63.9452 361.679 65.9482 361.679 65.9482L365.957 68.283C365.996 68.3046 366.018 68.3337 366.034 68.3737C366.039 68.4082 366.04 68.4517 366.021 68.4849C365.955 68.597 365.855 68.7684 365.754 68.9405C365.562 69.2678 365.143 69.3831 364.808 69.2001C363.606 68.5437 360.994 67.1184 360.994 67.1184L361.042 72.011C361.042 72.011 360.689 72.0131 360.337 72.0145C359.957 72.0193 359.643 71.7111 359.644 71.3324C359.629 69.982 359.606 67.1334 359.606 67.1334C359.606 67.1334 356.059 69.1471 355.357 69.5462C355.285 69.5808 355.205 69.5623 355.165 69.4966C355.1 69.3868 354.985 69.2059 354.879 69.0315C354.786 68.8792 354.761 68.6986 354.809 68.5286C354.846 68.3535 354.958 68.2071 355.113 68.1199C356.304 67.4423 358.895 65.9725 358.895 65.9725L355.071 63.8853C354.923 63.8046 354.801 63.6568 354.757 63.4882C354.712 63.3196 354.73 63.1345 354.819 62.9823C354.923 62.8044 355.028 62.6245 355.095 62.5113C355.133 62.4456 355.224 62.4248 355.293 62.4624C356.003 62.8499 359.58 64.8024 359.58 64.8024C359.58 64.8024 359.553 61.9623 359.538 60.6098C359.541 60.4269 359.609 60.2456 359.738 60.1129C359.868 59.9801 360.053 59.909 360.237 59.9063C360.446 59.9049 360.655 59.9035 360.786 59.9011C360.864 59.9011 360.931 59.9651 360.926 60.04C360.935 60.8459 360.977 64.7928 360.977 64.7928C360.977 64.7928 363.556 63.3213 364.747 62.643Z" fill="#181131"/>
<path d="M379.934 62.643C380.265 62.4566 380.683 62.5647 380.884 62.8886C380.981 63.0558 381.088 63.2286 381.153 63.3384C381.173 63.3705 381.187 63.4143 381.168 63.4468C381.159 63.4844 381.139 63.5186 381.102 63.5364C380.382 63.9452 376.867 65.9482 376.867 65.9482L381.144 68.283C381.184 68.3046 381.206 68.3337 381.221 68.3737C381.227 68.4082 381.228 68.4517 381.208 68.4849C381.143 68.597 381.042 68.7684 380.941 68.9405C380.75 69.2678 380.331 69.3831 379.996 69.2001C378.793 68.5437 376.181 67.1184 376.181 67.1184L376.229 72.011C376.229 72.011 375.877 72.0131 375.525 72.0145C375.145 72.0193 374.831 71.7111 374.832 71.3324C374.816 69.982 374.794 67.1334 374.794 67.1334C374.794 67.1334 371.247 69.1471 370.545 69.5462C370.473 69.5808 370.393 69.5623 370.353 69.4966C370.287 69.3868 370.172 69.2059 370.066 69.0315C369.974 68.8792 369.949 68.6986 369.997 68.5286C370.034 68.3535 370.146 68.2071 370.301 68.1199C371.491 67.4423 374.082 65.9725 374.082 65.9725L370.258 63.8853C370.11 63.8046 369.989 63.6568 369.945 63.4882C369.9 63.3196 369.918 63.1345 370.007 62.9823C370.111 62.8044 370.216 62.6245 370.283 62.5113C370.321 62.4456 370.411 62.4248 370.48 62.4624C371.19 62.8499 374.768 64.8024 374.768 64.8024C374.768 64.8024 374.74 61.9623 374.726 60.6098C374.729 60.4269 374.797 60.2456 374.926 60.1129C375.056 59.9801 375.241 59.909 375.425 59.9063C375.634 59.9049 375.843 59.9035 375.974 59.9011C376.052 59.9011 376.119 59.9651 376.113 60.04C376.123 60.8459 376.165 64.7928 376.165 64.7928C376.165 64.7928 378.744 63.3213 379.934 62.643Z" fill="#181131"/>
<path d="M243.16 205.029L235.576 171.852L153.881 190.527L161.465 223.703L243.16 205.029Z" fill="url(#paint18_linear_60_1864)"/>
<path d="M162.168 225.967L244.477 206.952L162.168 225.967Z" fill="url(#paint19_linear_60_1864)"/>
<path d="M162.168 225.967L244.477 206.952" stroke="#1E2188" stroke-width="16" stroke-linecap="round"/>
<defs>
<linearGradient id="paint0_linear_60_1864" x1="262.329" y1="38.8582" x2="262.329" y2="428.734" gradientUnits="userSpaceOnUse">
<stop stop-color="#8B38C7"/>
<stop offset="0.5" stop-color="#7D2383"/>
<stop offset="1" stop-color="#320D4C"/>
</linearGradient>
<linearGradient id="paint1_linear_60_1864" x1="87.5963" y1="298.77" x2="87.5963" y2="436.764" gradientUnits="userSpaceOnUse">
<stop stop-color="#8B38C7"/>
<stop offset="0.5" stop-color="#7D2383"/>
<stop offset="1" stop-color="#320D4C"/>
</linearGradient>
<linearGradient id="paint2_linear_60_1864" x1="334.201" y1="0" x2="334.201" y2="106.874" gradientUnits="userSpaceOnUse">
<stop stop-color="#8B38C7"/>
<stop offset="0.5" stop-color="#7D2383"/>
<stop offset="1" stop-color="#320D4C"/>
</linearGradient>
<linearGradient id="paint3_linear_60_1864" x1="72.5714" y1="334.519" x2="72.5714" y2="453.106" gradientUnits="userSpaceOnUse">
<stop stop-color="#8B38C7"/>
<stop offset="0.5" stop-color="#7D2383"/>
<stop offset="1" stop-color="#320D4C"/>
</linearGradient>
<linearGradient id="paint4_linear_60_1864" x1="617.397" y1="256.534" x2="254.735" y2="551.882" gradientUnits="userSpaceOnUse">
<stop stop-color="#E3DBF9"/>
<stop offset="0.27" stop-color="#D7CBF9"/>
<stop offset="0.54" stop-color="#CCBBFA"/>
<stop offset="0.77" stop-color="#A282FB"/>
<stop offset="1" stop-color="#7848FC"/>
</linearGradient>
<linearGradient id="paint5_linear_60_1864" x1="513.44" y1="177.398" x2="381.059" y2="360.596" gradientUnits="userSpaceOnUse">
<stop stop-color="#E3DBF9"/>
<stop offset="0.27" stop-color="#D7CBF9"/>
<stop offset="0.54" stop-color="#CCBBFA"/>
<stop offset="0.77" stop-color="#A282FB"/>
<stop offset="1" stop-color="#7848FC"/>
</linearGradient>
<linearGradient id="paint6_linear_60_1864" x1="333.199" y1="153.344" x2="385.62" y2="221.636" gradientUnits="userSpaceOnUse">
<stop stop-color="#FB9C9A"/>
<stop offset="0.32" stop-color="#FB9290"/>
<stop offset="0.64" stop-color="#FC8886"/>
<stop offset="0.74" stop-color="#FC6E6B"/>
<stop offset="0.84" stop-color="#FD5450"/>
<stop offset="0.92" stop-color="#FE3631"/>
<stop offset="1" stop-color="#FF1712"/>
</linearGradient>
<linearGradient id="paint7_linear_60_1864" x1="223.852" y1="272.922" x2="380.784" y2="287.959" gradientUnits="userSpaceOnUse">
<stop stop-color="#FB9C9A"/>
<stop offset="0.31" stop-color="#FB928F"/>
<stop offset="0.63" stop-color="#FC8784"/>
<stop offset="0.73" stop-color="#FC6C69"/>
<stop offset="0.83" stop-color="#FD524E"/>
<stop offset="0.92" stop-color="#FE3530"/>
<stop offset="1" stop-color="#FF1712"/>
</linearGradient>
<linearGradient id="paint8_linear_60_1864" x1="223.852" y1="272.922" x2="380.784" y2="287.959" gradientUnits="userSpaceOnUse">
<stop stop-color="#FB9C9A"/>
<stop offset="0.31" stop-color="#FB928F"/>
<stop offset="0.63" stop-color="#FC8784"/>
<stop offset="0.73" stop-color="#FC6C69"/>
<stop offset="0.83" stop-color="#FD524E"/>
<stop offset="0.92" stop-color="#FE3530"/>
<stop offset="1" stop-color="#FF1712"/>
</linearGradient>
<linearGradient id="paint9_linear_60_1864" x1="300.915" y1="230.605" x2="328.8" y2="305.257" gradientUnits="userSpaceOnUse">
<stop stop-color="#20238C"/>
<stop offset="0.27" stop-color="#1D2086"/>
<stop offset="0.54" stop-color="#1A1D7F"/>
<stop offset="0.77" stop-color="#101268"/>
<stop offset="1" stop-color="#050751"/>
</linearGradient>
<linearGradient id="paint10_linear_60_1864" x1="307.692" y1="245.351" x2="399.877" y2="389.552" gradientUnits="userSpaceOnUse">
<stop stop-color="#20238C"/>
<stop offset="0.25" stop-color="#1D2085"/>
<stop offset="0.51" stop-color="#191C7E"/>
<stop offset="0.75" stop-color="#0F1268"/>
<stop offset="1" stop-color="#050751"/>
</linearGradient>
<linearGradient id="paint11_linear_60_1864" x1="176.32" y1="406.586" x2="229.936" y2="30.4718" gradientUnits="userSpaceOnUse">
<stop stop-color="#817EFA"/>
<stop offset="0.28" stop-color="#7571F8"/>
<stop offset="0.56" stop-color="#6865F5"/>
<stop offset="0.78" stop-color="#3732EC"/>
<stop offset="1" stop-color="#0500E3"/>
</linearGradient>
<linearGradient id="paint12_linear_60_1864" x1="100.129" y1="103.491" x2="332.739" y2="376.58" gradientUnits="userSpaceOnUse">
<stop stop-color="#817EFA"/>
<stop offset="0.28" stop-color="#7571F8"/>
<stop offset="0.56" stop-color="#6865F5"/>
<stop offset="0.78" stop-color="#3732EC"/>
<stop offset="1" stop-color="#0500E3"/>
</linearGradient>
<linearGradient id="paint13_linear_60_1864" x1="379.38" y1="312.368" x2="517.897" y2="322.586" gradientUnits="userSpaceOnUse">
<stop stop-color="#FB9C9A"/>
<stop offset="0.23" stop-color="#FB8A87"/>
<stop offset="0.47" stop-color="#FC7875"/>
<stop offset="0.74" stop-color="#FD4744"/>
<stop offset="1" stop-color="#FF1712"/>
</linearGradient>
<linearGradient id="paint14_linear_60_1864" x1="379.38" y1="312.368" x2="517.897" y2="322.586" gradientUnits="userSpaceOnUse">
<stop stop-color="#FB9C9A"/>
<stop offset="0.23" stop-color="#FB8A87"/>
<stop offset="0.47" stop-color="#FC7875"/>
<stop offset="0.74" stop-color="#FD4744"/>
<stop offset="1" stop-color="#FF1712"/>
</linearGradient>
<linearGradient id="paint15_linear_60_1864" x1="429.776" y1="228.969" x2="377.439" y2="318.807" gradientUnits="userSpaceOnUse">
<stop stop-color="#20238C"/>
<stop offset="0.25" stop-color="#1D2085"/>
<stop offset="0.49" stop-color="#191C7D"/>
<stop offset="0.75" stop-color="#0F1267"/>
<stop offset="1" stop-color="#050751"/>
</linearGradient>
<linearGradient id="paint16_linear_60_1864" x1="531.075" y1="104.727" x2="457.117" y2="249.637" gradientUnits="userSpaceOnUse">
<stop stop-color="#AADBFF"/>
<stop offset="0.3" stop-color="#9ED6FF"/>
<stop offset="0.6" stop-color="#91D1FF"/>
<stop offset="0.7" stop-color="#76C5FF"/>
<stop offset="0.81" stop-color="#5AB9FF"/>
<stop offset="0.9" stop-color="#3EADFF"/>
<stop offset="1" stop-color="#22A1FF"/>
</linearGradient>
<linearGradient id="paint17_linear_60_1864" x1="527.031" y1="127.517" x2="476.725" y2="207.105" gradientUnits="userSpaceOnUse">
<stop stop-color="#AADBFF"/>
<stop offset="0.23" stop-color="#97D3FF"/>
<stop offset="0.47" stop-color="#85CBFF"/>
<stop offset="0.74" stop-color="#53B6FF"/>
<stop offset="1" stop-color="#22A1FF"/>
</linearGradient>
<linearGradient id="paint18_linear_60_1864" x1="202.606" y1="214.115" x2="195.142" y2="181.462" gradientUnits="userSpaceOnUse">
<stop stop-color="#1E2188" stop-opacity="0.5"/>
<stop offset="0.5" stop-color="#1E2188" stop-opacity="0.25"/>
<stop offset="1" stop-color="#1E2188" stop-opacity="0"/>
</linearGradient>
<linearGradient id="paint19_linear_60_1864" x1="395.892" y1="427.975" x2="429.201" y2="420.196" gradientUnits="userSpaceOnUse">
<stop stop-color="#817EFA"/>
<stop offset="0.28" stop-color="#7571F8"/>
<stop offset="0.56" stop-color="#6865F5"/>
<stop offset="0.78" stop-color="#3732EC"/>
<stop offset="1" stop-color="#0500E3"/>
</linearGradient>
</defs>
</svg>
